<?xml version="1.0" encoding="UTF-8"?>
<!DOCTYPE svg PUBLIC "-//W3C//DTD SVG 1.1//EN" "http://www.w3.org/Graphics/SVG/1.1/DTD/svg11.dtd">
<!-- Creator: CorelDRAW -->
<svg xmlns="http://www.w3.org/2000/svg" xml:space="preserve" width="210mm" height="297mm" version="1.1" style="shape-rendering:geometricPrecision; text-rendering:geometricPrecision; image-rendering:optimizeQuality; fill-rule:evenodd; clip-rule:evenodd"
viewBox="0 0 21000 29700"
 xmlns:xlink="http://www.w3.org/1999/xlink"
 xmlns:xodm="http://www.corel.com/coreldraw/odm/2003">
 <defs>
  <style type="text/css">
   <![CDATA[
    .str0 {stroke:#4B4B4D;stroke-width:20;stroke-miterlimit:22.9256}
    .str1 {stroke:#FEFEFE;stroke-width:7.62;stroke-miterlimit:22.9256}
    .fil1 {fill:none}
    .fil2 {fill:#FEFEFE}
    .fil0 {fill:#4B4B4D}
   ]]>
  </style>
 </defs>
 <g id="Plan_x0020_1">
  <metadata id="CorelCorpID_0Corel-Layer"/>
  <g id="_5.cdr">
   <g>
    <path class="fil0" d="M7509.08 22963.44c11.75,0.34 11.75,0.45 0,0zm-383.7 -180.46l-1305.29 4.41 -4.4 -52.92 -2.21 -908.41 -579.88 0c-114.22,-23.7 -176.69,-85.43 -187.41,-185.2l0 -216.08c8.28,-137.95 67.08,-199.68 176.39,-185.21l760.66 -0.01c52.87,29.23 94.79,90.97 138.94,158.75 0,0 122.73,14.7 328.52,0l110.22 -101.42 432.16 -17.64 8.82 -220.48 873.13 -829.03 643.82 8.82c173.5,-47.53 241.11,75.94 202.84,370.41l1340.56 -17.64c-15.68,56.84 -9,257.85 -29.47,520.45 -45.96,1.49 -606.53,18.94 -1588.84,17.54 0,0 11.76,116.12 8.82,286.63l-321.91 17.64c-9.32,40.83 -15.2,124.62 -17.64,251.36l1724.82 1755.61c33.86,-21.18 73.88,-33.43 116.77,-33.43 121.77,0 220.48,98.71 220.48,220.48 0,121.77 -98.71,220.48 -220.48,220.48 -121.77,0 -220.48,-98.71 -220.48,-220.48 0,-47.31 14.9,-91.15 40.26,-127.05 -206.9,-223.2 -812.15,-823.99 -1815.72,-1802.38l-952.5 -8.82c-28.37,87.48 -87.16,128.64 -176.39,123.47l-2.29 434.28 -109.37 0 6.97 -436.52c-147.1,-18.35 -226.48,-81.56 -238.13,-189.62l-445.38 4.41c18.54,-135.34 -15.39,-227.2 -101.8,-275.6l-687.57 2.21c-74.98,-11.2 -113.2,27.75 -114.66,116.86l0 154.34c45.97,83.93 127.55,119.2 244.75,105.83 346.9,1.47 560.04,-37.47 560.04,-37.47 8.83,596.77 6.63,948.07 6.63,948.07l361.6 -8.82 0 -956.91 132.29 -17.64 4.41 974.55 264.59 8.82 4.43 -277.85 110.6 0 -1.52 288.91 295.45 -4.41 4.41 -141.11 396.88 8.82 -13.22 449.46c-33.33,-0.98 -161.21,-3.81 -383.66,-8.48l-0.04 -171.98zm-213.39 -1759.76c0,0 -285.89,-33.81 -1091.4,-39.69 0,0 -92.66,-139.42 -164.94,-444.27l-83.69 0 0.86 -382.83 167.86 0.35 -0.86 382.48 -40.7 0c49.36,117.77 101.77,302.21 145.73,382.51 0,0 304.27,-4.4 992.19,-4.4l952.5 -899.58 732.02 -17.64 458.61 -485.07 0 -2222.51 -405.7 -370.42 -723.19 -8.82 -2416.54 -2398.89 -17.64 -987.78 -687.91 -635 0 -246.95 -855.49 -767.29 22.03 -2006.41c-14.35,-8.43 191.93,-234.63 618.83,-678.57l-243.25 1.99 0 -136.7 4224.53 -22.05 1003.2 -954.7 491.83 1.78 1.87 129.23 -443 -5.34 -970.14 952.5 -3884.22 31.81 -737.91 746.19 26.44 1912.36c52.29,45.77 337.46,304.97 855.51,777.58l0 238.12 687.92 643.82 8.82 952.5 2390.07 2372.44 679.1 8.82 467.43 432.15 0 2284.25 -537.98 546.8 -696.74 0 -926.05 917.23zm-67 -254.51c-576.21,23.52 -835.64,11.02 -835.64,11.02 -1.82,-109 5.7,-160.5 4.4,-240.47l-18.45 0 0.86 -381.95 158.82 0.33 -0.85 381.62 -74.61 0c3.59,107.4 3.72,187.57 2.59,191.97 24.54,0 48.41,-0.08 71.6,-0.22 387.83,-2.44 585.45,-24.03 585.45,-24.03l987.78 -917.23 635 -26.46c229.31,-282.22 379.24,-451.99 379.24,-451.99l12.14 -1838.86 -273.41 -343.95 -829.03 0 -2460.62 -2504.76 -35.28 -926.04c-270.47,-258.71 -394.67,-405.7 -394.67,-405.7 -259.87,-4.87 -340.72,10.57 -372.62,-8.82 -117.59,-70.55 -154.34,-114.65 -154.34,-114.65 -17.64,-223.43 -7.72,-342.86 -7.72,-342.86l-130.09 2.21c-6.8,-244.27 -6.83,-350.47 -0.08,-318.61l275.61 2.2 0 319.71 -97.01 2.21 6.61 306.48 127.88 88.19 405.7 4.41c276.35,273.41 440.98,458.62 440.98,458.62 20.6,623.25 24.28,886.37 24.28,886.37l2385.69 2460.63 793.75 0 379.24 396.88 0 1913.82 -440.97 537.99 -652.64 0c-594.14,581.78 -894,875.76 -899.59,881.94zm-83.78 -211.66c-436.9,17.83 -533.23,13.68 -554.28,10.64l0.93 -409.94 206.55 0.43 2.9 317.15c223.38,-4.4 335.08,-10.89 335.08,-10.89 658.52,-611.49 906.21,-890.77 906.21,-890.77 423.33,-17.64 588.7,-15.44 588.7,-15.44 251.36,-271.2 288.83,-304.25 288.83,-304.25 8.09,-1225.91 9.95,-1664.68 9.95,-1664.68 -193.29,-213.86 -220.5,-238.12 -220.5,-238.12 -552.69,0 -801.47,-7.71 -801.47,-7.71 -1640.41,-1669.84 -2527.87,-2543.35 -2527.87,-2543.35 -23.52,-617.36 -17.64,-910.6 -17.64,-910.6 -224.16,-274.15 -341.76,-392.48 -341.76,-392.48 -120.27,12.32 -323.79,0.45 -425.29,-2.1l-11.95 -10.72 -91.28 -93.3c-162.37,-167.95 -237.49,-256.49 -237.49,-256.49l-148.78 -156.55 8.82 -401.29 -635.01 -630.59 48.51 -145.52 692.33 736.43c3.09,311.02 4.56,450.66 4.41,418.92 165.45,174.85 269.5,287.4 326.07,354.35 15.75,20.4 44.81,57.25 81.6,100 163.43,5.9 428.77,7.49 428.77,7.49 276.35,273.41 383.66,449.8 383.66,449.8 20.6,623.25 24.28,886.37 24.28,886.37 1590.46,1640.42 2459.56,2493.7 2459.56,2493.7 529.17,0 827.92,22.05 827.92,22.05 252.83,264.59 255.76,280.01 255.76,280.01 0,1275.88 -11.01,1733.03 -11.01,1733.03 -293.98,358.66 -339.55,359.4 -339.55,359.4 -435.09,0 -571.06,17.64 -571.06,17.64 -594.14,581.78 -940.31,891.2 -945.9,897.38zm17.48 -857.89c-85.1,145.24 -207.02,244.89 -365.73,298.91l0.91 100.22 -205.88 0 0.4 -176.39 203.87 0 0.03 3.25c100.89,-43.54 196.97,-118.95 288.22,-226.2l0 -181.04 176.39 -0.41 0 181.66 -98.21 0zm-78.18 -449.87l0 -190.46 176.39 -0.41 0 191.24 -176.39 -0.37zm176.39 -237.45l-176.39 -0.37 0 -163.98 176.39 -0.41 0 164.76zm0 -211.97l-176.39 -0.37 0 -154.87 176.39 -0.41 0 155.65zm0 -202.82l-176.39 -0.37 0 -172.72 176.39 -0.41 0 173.5zm0 -220.33l-176.39 -0.37 0 -164.08 176.39 -0.41 0 164.86zm0 -211.65l-176.39 -0.37 0 -190.29 176.39 -0.41 0 191.07zm-2221.2 -7379.85c-181.74,1.97 -302.66,5.1 -362.74,9.37 -5.81,53.06 -8.81,106.98 -8.81,161.59 0,179.58 32.3,351.62 91.39,510.62 703.53,-7.62 1223.49,-8.69 1481.38,-8.61 11.47,-123.28 115.21,-219.77 241.48,-219.77 133.95,0 242.53,108.58 242.53,242.53 0,133.95 -108.58,242.53 -242.53,242.53 -63.06,0 -120.51,-24.08 -163.64,-63.52l93.88 -59.29c20.48,11.96 44.32,18.81 69.76,18.81 76.51,0 138.53,-62.02 138.53,-138.53 0,-76.51 -62.02,-138.53 -138.53,-138.53 -76.51,0 -138.53,62.02 -138.53,138.53 0,33.8 12.11,64.79 32.22,88.83 -36.8,28.92 -64.35,50.02 -82.6,63.29 -18.44,-22.9 -32.84,-49.21 -42.04,-77.84 -769.66,0 -1293.71,12.42 -1448.15,16.58 13.38,28.89 27.69,57.27 42.87,85.1l-102.69 28.57c-114.52,-217.91 -179.33,-466.04 -179.33,-729.3 0,-867.01 702.85,-1569.86 1569.86,-1569.86 867.01,0 1569.86,702.85 1569.86,1569.86 0,763.73 -545.38,1400.08 -1267.91,1540.85l-4.27 337.31 -92.6 4.41 -4.41 1327.34c1332.38,1334.41 2012.95,2009.1 2041.71,2024.07l176.39 154.34c505.64,12.21 759.93,18.09 762.88,17.64l595.32 608.54 4.42 2932.49 296.53 339.16c16.01,-6.57 33.54,-10.21 51.92,-10.21 75.5,0 136.7,61.2 136.7,136.7 0,75.5 -61.2,136.7 -136.7,136.7 -75.5,0 -136.7,-61.2 -136.7,-136.7 0,-18.34 3.62,-35.83 10.16,-51.81l-318.91 -365.33 -17.62 -2963.36 -515.94 -533.58c-551.88,-16.73 -817.94,-13.79 -798.16,8.82l-2218.08 -2266.59c-14.69,-917.23 -23.14,-1365.92 -23.14,-1365.92l-136.73 2.2 2.22 -271.2 -132.21 -4.32 -2.21 271.2 -134.49 0 -2.21 218.28 286.63 315.29c17.64,590.9 39.69,943.68 39.69,943.68 1208.27,1228.85 1799.17,1785.95 1799.17,1785.95l445.39 471.84 736.42 4.41 542.4 564.45c-5.61,1784.75 -8.57,2809.32 -8.85,3073.68 64.88,23.1 111.33,85.08 111.33,157.9 0,92.55 -75.02,167.57 -167.57,167.57 -92.55,0 -167.57,-75.02 -167.57,-167.57 0,-80.07 56.17,-147.03 131.24,-163.62l0.04 -3072.37 -463.02 -454.2 -749.66 -4.41 -1878.56 -1882.98c-285.61,-315.45 -432.59,-466.84 -440.92,-454.17 9.03,-681.9 -23.31,-999.4 -44.1,-952.5 -199.91,-211.67 -273.4,-317.5 -273.4,-317.5l0 -238.13 -132.29 -4.41 4.18 -383.54c-261.11,-92.36 -490.51,-251.85 -667.44,-457.72 -68.49,-79.7 -129.12,-166.34 -180.69,-258.74l105.59 -24.84c39.25,67.11 83.7,130.82 132.77,190.57l231.11 -1.26 1.12 92.31 -149.87 1.07c90.51,93.08 193.28,174.18 305.69,240.69l5.39 -242.96 -121.83 0.91 -2.28 -92.23 488.97 -2.66 2.22 91.21 -237.85 1.81 -0.19 314.31c158.62,72.82 332.49,118.17 515.48,129.93l-3.42 -448.15 -223.4 1.71 -2.05 -91.09 628.28 -3.43 -2.93 89.73 -250.67 1.93 -3.4 451.62c401.5,-12.63 762.28,-186.74 1019.57,-459.51l-710.42 5.53 0 -89.58 787.36 -4.31c160.01,-199.23 269.07,-441.19 307.28,-706.04l-1446.49 -3.88c-12.23,58.49 -48.33,109.25 -98.67,143.47 -21.38,-19.94 -47.49,-44.76 -78.31,-74.45 46.26,-22.22 77.54,-64.58 77.54,-113.17 0,-71.64 -67.95,-129.72 -151.76,-129.72 -83.81,0 -151.76,58.08 -151.76,129.72 0,71.64 67.95,129.72 151.76,129.72 10.57,0 20.89,-0.93 30.85,-2.68l77.87 84.57c-32.99,14.17 -69.85,22.11 -108.72,22.11 -141.25,0 -255.76,-104.64 -255.76,-233.72 0,-129.08 114.51,-233.72 255.76,-233.72 120.3,0 221.21,75.92 248.49,178.17 263.99,-2.56 774.56,-6.47 1460.87,-6.59 2.27,-33.39 3.43,-67.08 3.43,-101.04 0,-55.38 -3.07,-110.05 -9.05,-163.83 -1175.47,-9.23 -2000.67,-11.84 -2475.54,-7.86l-75.58 0.73zm2767.88 4427.65c-26.51,-25.4 -51.36,-52.55 -74.35,-81.24 125.95,-131.54 516.88,-523.27 1172.76,-1175.16 25.34,20.22 49.48,41.89 72.29,64.88l-1170.7 1191.52zm944.42 -1353.89c-618.09,608.25 -1013.54,988.86 -1126.74,1097.45 -15.42,-33.77 -28.68,-68.75 -39.56,-104.76 99.35,-97.86 478.15,-471.76 1044.78,-1040.7 42.02,12.87 82.62,28.98 121.52,48.01zm-330.56 -83.78c-458.37,458.71 -778.08,788.23 -869.93,883.27 -0.92,-16.14 -1.4,-32.4 -1.4,-48.77 0,-38.71 2.64,-76.8 7.73,-114.1 72.57,-81.34 304.57,-336.88 679.25,-708.05 48.12,-8.62 97.68,-13.12 148.29,-13.12 12.09,0 24.1,0.27 36.06,0.77zm-204.04 -345.66l0 -943.69 1587.5 -1446.39 -4.41 -1235.13 591.52 -538.12 2.18 150.41 -470.22 427.8 0 1212.68 -1587.51 1472.85c-10.19,20.06 -11.66,283.18 -4.41,789.34l718.79 -4.41 573.26 568.86 0 573.27 4.41 1693.34 599.73 679.1 0 1543.41 198.44 0 8.82 61.73 -299.87 -17.63c0.08,58.25 -1.39,-460.63 -4.41,-1556.64l-590.9 -652.65 -35.28 -2257.78 -476.25 -520.35 -811.39 0zm1421.36 -2486.36c-719.68,721.62 -1224.73,1056.42 -1841.06,1697.77 0,0 -2.94,238.75 -2.17,476.82 0,0 -68.62,112.41 -278.69,329.39 17.92,24.98 28.32,54.67 28.32,86.52 0,88.89 -80.95,160.95 -180.8,160.95 -99.85,0 -180.8,-72.06 -180.8,-160.95 0,-88.89 80.95,-160.95 180.8,-160.95 14.88,0 29.34,1.61 43.18,4.62l-1.5 -1.6c0,0 0.65,-2.57 272.58,-282.79 0,0 4.03,-283.75 5.41,-519.22 25.65,-27.07 1526.41,-1397.83 1820.22,-1675.74 17.64,35.28 54.06,-443.93 42.3,-1267.08 23.35,-19.3 185.39,-158.06 838.71,-830.93l2.34 161.76c-97.26,93.4 -312.07,298.12 -717.99,678.36 0,0 -33.79,424.06 -30.85,1303.07zm-225.31 -220.19c-657.94,699.57 -1379.08,1298.94 -1995.41,1940.29 0,0 -7.35,75.6 -6.58,313.67 0,0 -195.77,216.07 -415.94,441.53 23.75,25.05 38.11,57.59 38.11,93.15 0,79.15 -71.07,143.31 -158.75,143.31 -87.68,0 -158.75,-64.16 -158.75,-143.31 0,-79.15 71.07,-143.31 158.75,-143.31 13.08,0 25.8,1.43 37.95,4.12 41.55,-44.67 168.54,-181.6 380.63,-413.68 0,0 -8.1,-100.75 -6.72,-336.22 573.4,-605.21 1351.73,-1313.42 2009.84,-1935.92 0,0 14.37,-413.06 2.61,-1236.21 23.52,-19.44 214.27,-138.07 879.84,-823.99 0,0 72.19,-11.29 203.42,-20.32l1.67 115.04c-51.92,1.44 -110.35,3.51 -174.72,6.45 0,4.19 -211.68,213.38 -793.76,769.49 0,0 -5.13,346.9 -2.19,1225.91zm-272.3 -54.24l-679.1 643.83 -1397.89 1274.41 0 348.37 -401.28 330.73 0 511.53 108.09 93.19c13.89,-5.56 28.82,-8.6 44.37,-8.6 74.28,0 134.49,69.1 134.49,154.34 0,85.24 -60.21,154.34 -134.49,154.34 -74.28,0 -134.49,-69.1 -134.49,-154.34 0,-26.36 5.77,-51.16 15.91,-72.86 -30.49,-32.66 -77.8,-85.81 -141.93,-159.44 0.16,-4.41 -1.31,-196.96 -4.41,-577.67l412.31 -343.96 4.41 -330.73 156.55 -167.58c0,0 633.53,-576.58 1882.96,-1758.39 0,0 45.94,-451.81 34.18,-1274.96 23.52,-19.44 288.03,-289.19 953.6,-975.11l384.34 -3.66 1.83 126.23 -357.5 16.33 -886.36 855.49 4.41 1318.51zm632.77 -2689.93l-970.14 952.5 -4150.17 33.99c2.89,-45.57 7.15,-91.02 12.77,-136.3l4053.64 -21.16 1003.2 -954.7 581.12 1.92c4.93,54.78 11.14,97.96 18.59,129.56 0.01,0.81 -183,-1.4 -549.01,-5.81zm-174.21 -255.76l-1040.69 996.6 -3874.88 -8.32c7.92,-44.53 17.18,-88.93 27.77,-133.18l3829.46 -8.44 1027.47 -983.37 722.61 -4.25c0.94,48.01 2.28,92.32 4.02,132.92l-695.76 8.04zm-194.08 -224.9l-956.92 952.51 -3701.23 -4.05c11.23,-37.26 23.44,-74.42 36.6,-111.47l3580.85 -16.77 1049.52 -952.51 875.43 -8.26c-0.16,47.98 -0.04,93.47 0.34,136.44l-884.59 4.11zm-127.9 -264.59l-1062.75 992.19 -3380.7 -20.44c17.21,-41.16 35.65,-82.19 55.27,-123.1l3320.98 -6.4 51.49 -45.68c60.45,-63.55 399,-372.44 1015.67,-926.68l1014.98 8.19 -1.79 117.83 -1013.15 4.09zm1002.42 -384.27c-582.88,12.58 -908.23,17.93 -976,16.04l-1155.35 1058.33 -3172.18 -8.24c21.95,-38.88 45,-77.65 69.15,-116.29l3067.75 -16.58 1164.17 -1058.33 999.37 15.86c0.15,37.49 1.19,73.89 3.09,109.21zm-587.95 -821.81l-1710.98 1675.69 -2855.23 -26.11c22.47,-32.58 45.74,-65.09 69.79,-97.51l2723.71 -8.67 1737.43 -1693.34 726.77 0c-11.05,51.05 -21.25,101.04 -30.58,149.94l-660.91 0zm922.77 -698.62c-61.59,-432.33 -849.46,-605.78 -2363.61,-520.35 -443.66,359.83 -855.24,603.84 -1234.73,732.02 -1325.81,606.36 -2019.61,1256.06 -2081.39,1949.1 -535.36,417.76 -749.97,988.09 -643.82,1710.98 -514.6,451.72 -676.29,942.67 -485.08,1472.85 -476.72,329.89 -697.21,820.84 -661.46,1472.85 -299.03,470.67 -407.81,864.61 -326.32,1181.81 -524.19,612.38 -627.08,1229.75 -308.68,1852.09 -159.46,632.8 -106.54,1238.41 158.75,1816.81 34.52,1226.65 378.48,2158.58 1031.88,2795.77 117.11,112.95 378.75,648 784.93,1605.14 75.83,166.18 452.12,592.45 1128.89,1278.82 464.73,848.31 976.26,1230.49 1534.59,1146.53 295.74,581.27 877.83,807.63 1746.26,679.1 718.01,554.31 1211.9,483.75 1481.67,-211.67 257.15,-364.23 483.51,-375.99 679.09,-35.27 448.33,1026.94 1483.15,1053.39 3104.46,79.37 869.48,-12.61 1448.62,-371.27 1737.43,-1075.97 894.24,-247.19 1294.05,-791.06 1199.45,-1631.6 123.97,-126.47 250.38,-308.74 379.24,-546.81 928.42,-238.72 1437.01,-1006.01 1525.76,-2301.88 519.16,-778.95 575.02,-1569.77 167.57,-2372.44 357.01,-1162.79 257.05,-2177.03 -299.86,-3042.71 173.02,-982.39 -32.76,-1655.61 -617.36,-2019.66 125.87,-1098.92 -53.46,-1810.35 -537.99,-2134.31 16.02,-631.68 -216.23,-1081.48 -696.74,-1349.38 -28.82,-878.93 -540.35,-1440.44 -1534.58,-1684.52 -295.97,-661.54 -1036.81,-1011.37 -2222.51,-1049.51 -1098.3,-690.99 -1980.25,-623.37 -2645.84,202.84zm-3239.5 18201.72c-131.51,0 -238.12,-106.61 -238.12,-238.12 0,-131.51 106.61,-238.12 238.12,-238.12 131.51,0 238.12,106.61 238.12,238.12l-0.75 19.01 -104.89 2.02c1.07,-6.85 1.64,-13.87 1.64,-21.03 0,-74.07 -60.05,-134.12 -134.12,-134.12 -74.07,0 -134.12,60.05 -134.12,134.12 0,74.07 60.05,134.12 134.12,134.12 43.15,0 81.55,-20.38 106.08,-52.04l118.61 -3.04c-32.59,92.65 -120.89,159.08 -224.69,159.08zm2452.91 883.17l-668.05 -675.24c-29.43,26.44 -65.02,46.16 -104.34,56.73l-21.92 -101.92c62.01,-19.05 107.12,-76.81 107.12,-145.09 0,-83.81 -67.95,-151.76 -151.76,-151.76 -83.81,0 -151.76,67.95 -151.76,151.76 0,83.85 67.83,151.76 152.49,151.76l22.35 102.97c-150.32,13.25 -278.84,-104.59 -278.84,-254.73 0,-141.25 114.51,-255.76 255.76,-255.76 194.61,0 315.44,207.88 225.83,375.93l708.4 693.8 -95.28 51.55zm360.2 -217.45l-1118.28 -1070.69c-18.7,5.27 -38.42,8.1 -58.81,8.1 -41.49,0 -80.27,-11.7 -113.17,-31.97 16.02,-20.01 37.22,-47.87 63.59,-83.58 14.94,7.38 31.77,11.55 49.58,11.55 61.89,0 112.07,-50.18 112.07,-112.07 0,-61.89 -50.18,-112.07 -112.07,-112.07 -61.89,0 -112.07,50.18 -112.07,112.07 0,26.41 9.15,50.69 24.43,69.85 -27.73,33.7 -50.49,60.29 -68.25,79.77 -37.27,-38.82 -60.18,-91.55 -60.18,-149.62 0,-119.33 96.74,-216.07 216.07,-216.07 119.33,0 216.07,96.74 216.07,216.07 0,44.05 -13.19,85.04 -35.83,119.2l1090.72 1074.32 -93.87 85.14zm-2504.35 -4497.15l-326.28 0 0 -181.88 326.28 -0.75 0 182.63zm0 -228.26l-326.28 -0.68 0 -173.54 326.28 -0.76 0 174.98zm0 -220.37l-326.28 -0.67 0 -191.66 326.28 -0.56 0 151.05c63.12,2.8 160.77,13.98 316.02,24.3 14.06,-43.32 54.76,-74.64 102.77,-74.64 59.66,0 108.03,48.37 108.03,108.03 0,59.66 -48.37,108.03 -108.03,108.03 -57.86,0 -105.1,-45.5 -107.9,-102.66 -139.36,-7.21 -250.36,-19.99 -310.89,-24.75l0 3.53zm0 -237.82l-326.28 -0.67 0 -165.18 326.28 -0.76 0 166.61zm342.07 -291.31l-342.07 -4.75 0 84.1 -326.28 -0.68 0 -156.07 326.28 -0.76 0 34.4 353.19 8.11c15.79,-28.47 46.16,-47.75 81.03,-47.75 51.14,0 92.6,41.46 92.6,92.6 0,51.14 -41.46,92.6 -92.6,92.6 -51.14,0 -92.6,-41.46 -92.6,-92.6l0.45 -9.2zm174.19 -222.92c-250.4,-6.24 -420.86,-5.72 -516.26,-4.35l0 103.8 -326.28 -0.68 0 -173.92 326.28 -0.76 0 30.98 558.16 -3.57c10.16,14.09 84.19,100.69 300.07,317.64 13.76,-6.76 29.26,-10.56 45.63,-10.56 57.23,0 103.63,46.4 103.63,103.63 0,57.23 -46.4,103.63 -103.63,103.63 -57.23,0 -103.63,-46.4 -103.63,-103.63 0,-25.67 9.35,-49.17 24.8,-67.26 -189.31,-178.82 -308.77,-294.95 -308.77,-294.95zm-267.58 -120.36l-248.68 -74.43 0 73.91 -326.28 -0.68 0 -165.28 326.28 -0.76 0 21.54c51.14,15.95 162.58,50.63 304.58,94.08 0,0 178.26,11.26 530.98,-0.19 20.49,-27.6 53.33,-45.5 90.35,-45.5 62.1,0 112.44,50.34 112.44,112.44 0,62.1 -50.34,112.44 -112.44,112.44 -58.94,0 -107.28,-45.35 -112.05,-103.05 -390.46,-5.52 -560.22,-8.13 -509.27,-7.79l-55.91 -16.73zm-12.44 -164.07c-65.43,-26.55 -160.87,-65.93 -236.24,-102.59l0 54.49 -326.28 -0.68 0 -191.49 326.28 -0.75 0 60.37 293.56 118.91 348.06 0 185.35 -199.32c-11.32,-17.32 -17.91,-38.02 -17.91,-60.25 0,-60.88 49.36,-110.24 110.24,-110.24 60.88,0 110.24,49.36 110.24,110.24 0,60.88 -49.36,110.24 -110.24,110.24 -12,0 -23.56,-1.93 -34.37,-5.47l-220.95 220.95c-323.38,-2.94 -427.74,-4.41 -427.74,-4.41zm151.68 -215.48c-55.93,0 -102.34,-40.84 -110.99,-94.33l-276.93 -2.74 0 26.09 -326.28 -0.67 0 -152.09 326.28 0.66 0 62.99 289.35 -6.5c19.12,-34.75 56.1,-58.29 98.57,-58.29 62.1,0 112.44,50.34 112.44,112.44 0,62.1 -50.34,112.44 -112.44,112.44zm839.77 -2740.42c-49.69,40.4 -104.13,75.21 -162.34,103.46 -205.59,-12.84 -302.36,-11.86 -290.29,2.93l-59.36 80.31 -14.55 0.12c-31.12,0 -61.85,-1.71 -92.09,-5.02l157.18 -198.89 461.45 17.09zm249.36 -958.33l-1108.36 1076.36c-31.54,-13.69 -62.07,-29.29 -91.44,-46.63l1149.86 -1133.26c18.92,33.15 35.63,67.73 49.94,103.53zm289.73 7369.31l-859.94 -8.51 -8.82 -141.11 851.71 -25.55c28.48,-77.59 103.01,-132.95 190.48,-132.95l27.2 -0.73 -10.12 405.71 -17.08 0.72c-73.48,0 -137.84,-39.07 -173.43,-97.58zm-3326.2 -1570.84l-167.86 0 0.4 -176.39 167.85 0 -0.39 176.39zm-301.29 -1444.64l-66.6 0 0 -23.71 160.02 0 0 23.71 -66.6 0 0 178.36 -26.82 0 0 -178.36zm-52.03 -240.56l-24.84 0 0 -158.14c-5.97,5.74 -13.83,11.43 -23.52,17.12 -9.69,5.7 -18.44,9.98 -26.15,12.8l0 -23.99c13.88,-6.49 26.01,-14.39 36.41,-23.71 10.39,-9.26 17.78,-18.25 22.1,-27l16 0 0 202.92zm163.92 -9.78c-9.97,-8.8 -16,-21.17 -18.02,-37.07l23.71 -1.97c2.02,11.19 5.88,19.28 11.57,24.31 5.69,5.04 12.98,7.58 21.92,7.58 7.62,0 14.3,-1.74 20.08,-5.27 5.79,-3.48 10.49,-8.14 14.11,-14.02 3.63,-5.83 6.68,-13.73 9.18,-23.66 2.49,-9.92 3.71,-20.04 3.71,-30.34l-0.14 -4.98c-4.94,7.9 -11.71,14.34 -20.27,19.24 -8.56,4.93 -17.88,7.38 -27.85,7.38 -16.7,0 -30.81,-6.07 -42.38,-18.2 -11.52,-12.09 -17.31,-28.08 -17.31,-47.93 0,-20.51 6.02,-36.97 18.11,-49.49 12.04,-12.46 27.14,-18.72 45.35,-18.72 13.07,0 25.07,3.53 35.98,10.63 10.86,7.06 19.1,17.13 24.74,30.25 5.64,13.07 8.47,32.03 8.47,56.82 0,25.82 -2.78,46.38 -8.38,61.66 -5.59,15.34 -13.97,26.96 -25.02,34.95 -11.05,8 -23.99,12 -38.85,12 -15.81,0 -28.69,-4.38 -38.71,-13.17zm391.02 2135.95l-149.74 0 0.86 -382.37 149.73 0.31 -0.85 382.06zm0.98 -440.97l-149.73 0 0.4 -176.39 149.73 0 -0.4 176.39zm-156.63 -1694.98c-9.97,-8.8 -16,-21.17 -18.02,-37.07l23.71 -1.97c2.02,11.19 5.88,19.28 11.57,24.31 5.69,5.04 12.98,7.58 21.92,7.58 7.62,0 14.3,-1.74 20.08,-5.27 5.79,-3.48 10.49,-8.14 14.11,-14.02 3.63,-5.83 6.68,-13.73 9.18,-23.66 2.49,-9.92 3.71,-20.04 3.71,-30.34l-0.14 -4.98c-4.94,7.9 -11.71,14.34 -20.27,19.24 -8.56,4.93 -17.88,7.38 -27.85,7.38 -16.7,0 -30.81,-6.07 -42.38,-18.2 -11.52,-12.09 -17.31,-28.08 -17.31,-47.93 0,-20.51 6.02,-36.97 18.11,-49.49 12.04,-12.46 27.14,-18.72 45.35,-18.72 13.07,0 25.07,3.53 35.98,10.63 10.86,7.06 19.1,17.13 24.74,30.25 5.64,13.07 8.47,32.03 8.47,56.82 0,25.82 -2.78,46.38 -8.38,61.66 -5.59,15.34 -13.97,26.96 -25.02,34.95 -11.05,8 -23.99,12 -38.85,12 -15.81,0 -28.69,-4.38 -38.71,-13.17zm233.63 -7.62c-13.31,-16.94 -19.95,-44.36 -19.95,-82.32 0,-23.85 2.45,-43.13 7.34,-57.71 4.94,-14.63 12.23,-25.87 21.92,-33.73 9.64,-7.85 21.83,-11.76 36.5,-11.76 10.82,0 20.32,2.17 28.55,6.54 8.19,4.38 14.96,10.68 20.23,18.91 5.27,8.19 9.4,18.2 12.42,30.01 3.05,11.81 4.56,27.75 4.56,47.74 0,23.71 -2.45,42.9 -7.29,57.48 -4.85,14.63 -12.14,25.87 -21.83,33.77 -9.64,7.91 -21.87,11.86 -36.64,11.86 -19.43,0 -34.71,-6.92 -45.81,-20.79zm-1002.31 2537.55c-62.1,0 -112.44,-50.34 -112.44,-112.44 0,-55.79 40.63,-102.08 93.91,-110.92l-1.36 -170.62 -79.23 0 0 -337.55c-18.17,-4.49 -36.26,-9.43 -54.25,-14.81l0.78 352.36 -166.36 0 1.81 -384.63 71.01 0.15c-47.56,-18.77 -94.17,-40.82 -139.51,-66.19l-0.06 9.7 -188.31 0 0.33 -140.95c-89.87,-76.92 -162.66,-162.99 -218.34,-258.18l-100.85 0 0 -175.3 158.75 -0.37 0 166.76c71.26,85.69 147.08,162.91 227.45,231.65l122.15 0 -0.64 95.21c22.55,16.14 45.37,31.69 68.45,46.65l0.67 -141.86 162.08 0 0.39 176.39 -107.62 0c33.7,20.11 67.9,39 102.54,56.67l5.21 0.01 0.01 2.64c17.99,9.11 36.1,17.88 54.31,26.33l0 -28.86 160.1 0.33 -0.86 383.85 -31.79 0c0.53,91.33 1.23,146.98 1.61,173.13 47.55,13.1 82.5,56.68 82.5,108.41 0,62.1 -50.34,112.44 -112.44,112.44zm-734.12 -1688.97l-158.75 -0.33 0 -179.15 158.75 -0.37 0 179.85zm0 -237.82l-158.75 -0.33 0 -152.68 158.75 -0.37 0 153.38zm-246.91 -355.67l0 143.2 -361.64 -0.75 0 -84.55c-108.72,-12.5 -185.88,-25.44 -231.44,-34.09 -8.7,40.83 -44.98,71.45 -88.41,71.45 -49.93,0 -90.4,-40.47 -90.4,-90.4 0,-49.93 40.47,-90.4 90.4,-90.4 43.02,0 79.02,30.06 88.16,70.3 47.64,9.86 124.79,24.12 231.69,38.63l0 -22.55 361.64 -0.84zm0 -59.62l-361.64 -0.75 0 -69.44c-213.15,-21.02 -365.36,-40.1 -456.6,-57.25 -16.25,24.01 -43.74,39.79 -74.92,39.79 -49.93,0 -90.4,-40.47 -90.4,-90.4 0,-49.93 40.47,-90.4 90.4,-90.4 43.91,0 80.52,31.3 88.69,72.81l442.83 74.36 0 -38.94 361.64 -0.83 0 161.05zm0 -220.33l-361.64 -0.75 0 -88.86c-96.73,-17.35 -168.07,-28.72 -214,-37.55 -16.3,37.42 -53.63,63.58 -97.06,63.58 -58.45,0 -105.83,-47.38 -105.83,-105.83 0,-58.45 47.38,-105.83 105.83,-105.83 58.45,0 105.83,47.38 105.83,105.83l-0.04 2.84 205.27 33.77 0 -18.78 361.64 -0.83 0 152.41zm0 -211.65l-361.64 -0.75 0 -52.75 -241.06 -146.9 -524.37 -16.14c-3.01,53.3 -47.2,95.62 -101.26,95.62 -56.01,0 -101.42,-45.41 -101.42,-101.42 0,-56.01 45.41,-101.42 101.42,-101.42 37.17,0 69.69,20 87.34,49.83l538.29 11.79 241.06 139.56 0 -55.2 361.64 -0.84 0 178.62zm246.91 635.31l-158.75 -0.33 0 -143.58 158.75 -0.37 0 144.28zm0 -202.82l-158.75 -0.33 0 -161.43 158.75 -0.37 0 162.13zm-246.91 -670.85l-361.64 -0.75 0 -151.93 361.64 0.73 0 151.95zm592.4 2618.44l-186.4 0 0.89 -385.15 188.07 0.38 -2.56 384.77zm-592.4 -1015.2l0 175.1 -361.64 0 0 -174.26 361.64 -0.84zm0 -59.93l-361.64 -0.75 0 -159.08 361.64 -0.84 0 160.67zm0 -220.37l-361.64 -0.75 0 -177.19 361.64 -0.83 0 178.77zm0 -237.82l-361.64 -0.75 0 -12c-64.9,32.73 -128.44,66.67 -171.86,90.23 2.68,8.33 4.14,17.21 4.14,26.43 0,47.49 -38.5,85.99 -85.99,85.99 -47.49,0 -85.99,-38.5 -85.99,-85.99 0,-47.49 38.5,-85.99 85.99,-85.99 20.26,0 38.89,7.01 53.57,18.72 46.61,-26.82 116.97,-65.39 200.14,-104.79l0 -83.31 361.64 -0.84 0 152.3zm1095.02 1092.35l0.39 -176.39 192.81 0 1.53 176.39 -194.73 0zm395.34 839.37c-63.32,0 -114.65,-51.33 -114.65,-114.65 0,-21.46 5.9,-41.56 16.16,-58.72l-236.29 -225.03 -61.56 0 0.87 -383.74 195.36 0.4 3.34 383.34 -26.76 0 176.09 179.35c14.46,-6.57 30.52,-10.25 47.44,-10.25 63.32,0 114.65,51.33 114.65,114.65 0,63.32 -51.33,114.65 -114.65,114.65zm-8.34 -398.4l-125.03 0 -1.69 -383.2 127.58 0.26 -0.86 382.94zm-642.65 -2540.69l-150.7 0 0 -202.07 145.9 0 0 23.71 -119.09 0 0 62.09 111.47 0 0 23.7 -111.47 0 0 68.86 123.89 0 0 23.71zm-17.7 -519.66l-145.18 0 0.79 -167.57 144.02 0 0.37 167.57zm-204.81 -608.55l-1.98 297.13 -201.1 0 0.68 -297.13 88.26 0c20.58,-121.93 28.66,-234 32.39,-309.28 -17.17,7.06 -36,10.96 -55.73,10.96 -80.98,0 -146.62,-65.64 -146.62,-146.62 0,-80.98 65.64,-146.62 146.62,-146.62 80.98,0 146.62,65.64 146.62,146.62 0,43.1 -18.6,81.86 -48.19,108.68 -12.66,123.14 -19.8,281.18 -21.43,336.26l60.48 0zm866.15 3227.93l-127.97 0 -0.78 -176.39 129.14 0 -0.39 176.39zm-235.45 -1326.96l-76.76 0 0 -24.83 76.76 0 0 24.83zm-199.58 -1292.42l-166.07 0 0 -167.57 166.44 0 -0.37 167.57zm0.69 -311.42l-166.76 0 0 -297.13 119.56 0 5.19 -190.93 183.05 -138.91 -2.21 -489.49 -1214.84 -1225.9c0.07,-73.34 2.51,-131.85 4.33,-175.13 -80.69,-10.15 -142.59,-68.77 -142.59,-139.55 0,-77.93 75.02,-141.11 167.57,-141.11 92.55,0 167.57,63.18 167.57,141.11 0,58.13 -41.74,108.06 -101.36,129.67l-3.06 168.46 1186.22 1195.04 4.41 586.49c-117.59,105.84 -189.62,158.76 -189.62,158.76 -9.39,59.52 -10.97,82.44 -18.81,110.04l1.35 308.58zm-95.24 -573.39c-42.45,0 -80.76,-17.77 -107.86,-46.27 -6.74,25.64 -30.42,118.71 -37.59,322.53l12.35 0 0.65 297.13 -143.02 0 -2.96 -297.13 96.93 0 0 -305.56 52.09 -45.96c-12.36,-21.69 -19.42,-46.81 -19.42,-73.57 0,-82.2 66.63,-148.83 148.83,-148.83 82.2,0 148.83,66.63 148.83,148.83 0,82.2 -66.63,148.83 -148.83,148.83zm73.48 2233.3c-12.37,-5.31 -22.01,-13.31 -29.02,-24.04 -7.05,-10.67 -10.72,-22.76 -11.1,-36.26l25.12 -2.26c1.18,10.16 3.95,18.49 8.33,25.03 4.37,6.49 11.14,11.75 20.32,15.8 9.17,4 19.52,6.02 30.99,6.02 10.21,0 19.19,-1.51 27,-4.56 7.81,-3.06 13.59,-7.25 17.4,-12.56 3.81,-5.32 5.74,-11.1 5.74,-17.31 0,-6.3 -1.83,-11.81 -5.5,-16.56 -3.67,-4.7 -9.74,-8.65 -18.2,-11.9 -5.41,-2.07 -17.41,-5.36 -35.99,-9.83 -18.58,-4.47 -31.56,-8.65 -38.99,-12.6 -9.64,-5.08 -16.79,-11.39 -21.5,-18.87 -4.75,-7.47 -7.1,-15.89 -7.1,-25.16 0,-10.25 2.92,-19.8 8.7,-28.65 5.79,-8.89 14.21,-15.61 25.36,-20.22 11.1,-4.61 23.47,-6.92 37.06,-6.92 14.96,0 28.18,2.4 39.61,7.25 11.43,4.8 20.22,11.9 26.38,21.31 6.17,9.36 9.46,19.99 9.93,31.84l-25.68 1.97c-1.37,-12.74 -6.02,-22.38 -13.97,-28.88 -7.95,-6.53 -19.71,-9.78 -35.23,-9.78 -16.18,0 -27.99,2.96 -35.38,8.89 -7.38,5.93 -11.1,13.08 -11.1,21.45 0,7.24 2.64,13.22 7.86,17.92 5.17,4.66 18.58,9.5 40.31,14.39 21.73,4.94 36.64,9.22 44.73,12.89 11.71,5.41 20.42,12.23 26.01,20.56 5.6,8.27 8.38,17.82 8.38,28.64 0,10.77 -3.06,20.84 -9.22,30.34 -6.17,9.5 -14.96,16.89 -26.49,22.15 -11.52,5.27 -24.45,7.91 -38.89,7.91 -18.26,0 -33.54,-2.68 -45.87,-8zm-935.53 -4692.28c-28.15,19.55 -64.79,31.37 -104.84,31.37 -88.9,0 -160.96,-58.24 -160.96,-130.09 0,-71.85 72.06,-130.09 160.96,-130.09 88.9,0 160.96,58.24 160.96,130.09 0,14.8 -3.06,29.03 -8.69,42.28l420.15 412.36 0 573.27c923.11,914.29 1362.61,1353.79 1362.61,1353.79 -17.64,282.23 -4.41,440.98 -4.41,440.98l-3.61 12.44 -0.66 295.97 -149.66 0 7.92 -297.13 41.86 0 11.54 -434.62 -1322.92 -1314.1 -4.41 -564.45 -405.84 -422.07zm1918.38 2260.93l-1344.97 -1397.89 -4.41 -740.83 -98.53 -95.87c-14.67,3.27 -30.15,5.03 -46.14,5.03 -93.76,0 -169.77,-60.22 -169.77,-134.5 0,-74.28 76.01,-134.5 169.77,-134.5 93.76,0 169.77,60.22 169.77,134.5 0,31.75 -13.89,60.94 -37.11,83.94l95.8 92.89 0 776.12 1367.02 1367.02 -7.57 518.4 21.63 0 -0.66 297.13 -158.75 0 0.67 -297.13 46.87 0 -3.62 -474.31zm-967.62 3702.24l-160.23 0 0 -176.39 160.62 0 -0.39 176.39zm-360.96 -955.69l0 95.11 -26.81 0 0 -202.07 26.81 0 0 83.26 104.42 0 0 -83.26 26.81 0 0 202.07 -26.81 0 0 -95.11 -104.42 0zm-90.15 -371.83l-85.09 0 -21.92 61.24 -28.36 0 77.51 -202.07 29.4 0 82.27 202.07 -30.43 0 -23.38 -61.24zm-344.12 -1001.4l0 151.96 -158.75 -0.33 0 -151.95 92.58 0.19c52.45,-125.98 129.91,-234.42 232.4,-325.26l0.31 -132.64 200.47 0 -1.12 167.57 -152.43 0c-78.57,66.28 -149.41,168.58 -216.6,290.45l3.14 0.01zm2097.6 -290.46l-167.67 0 0.38 -167.57 174.18 0 -1.17 123.86c203.76,101.9 336.02,206.52 375.61,339.2l113.99 0.23 0 152.09 -176.39 -0.37 0 -152.08 16.59 0.03c-56.6,-106.14 -178.91,-201.82 -335.52,-295.39zm-1077.54 0l-166.05 0 0.38 -167.57 164.21 0 1.46 167.57zm221.88 0l-145.4 0 -0.74 -167.57 146.52 0 -0.38 167.57zm220.73 0l-167.78 0 0.38 -167.57 167.77 0 -0.37 167.57zm202.62 0l-149.68 0 0.38 -167.57 149.67 0 -0.37 167.57zm205.84 2619.38l-158.82 0 0.4 -176.39 158.82 0 -0.4 176.39zm5.86 -2619.38l-158.77 0 0.38 -167.57 158.76 0 -0.37 167.57zm715.93 1991.11l-176.39 -0.37 0 -172.34 176.39 -0.41 0 173.12zm-2592.92 -167.13l0 161.75 -158.75 -0.33 0 -161.05 158.75 -0.37zm284.18 -267.25l0 137.68c0,16.88 -2.03,29.96 -6.12,39.27 -4.09,9.27 -10.53,16.32 -19.42,21.22 -8.85,4.84 -19.24,7.29 -31.14,7.29 -17.74,0 -31.28,-5.08 -40.69,-15.29 -9.41,-10.21 -13.92,-25.35 -13.55,-45.48l23.99 -3.3c0.66,15.48 3.53,26.06 8.66,31.8 5.12,5.69 12.27,8.56 21.35,8.56 6.68,0 12.47,-1.55 17.31,-4.61 4.85,-3.1 8.23,-7.29 10.07,-12.56 1.83,-5.27 2.73,-13.73 2.73,-25.3l0 -139.28 26.81 0zm-284.18 -817.79l0 153.49 -158.75 -0.33 0 -152.79 158.75 -0.37zm0 -237.86l0 179.7 -158.75 -0.33 0 -179 158.75 -0.37zm3267.41 -10869.07c-115.43,0 -212.54,-78.52 -240.82,-185.04l-260.2 -3.25 -440.97 449.8 -1649.86 -12.6c24.53,-40.63 50.44,-82.16 77.73,-124.56l1532.44 -3.96 458.61 -427.74 279.19 6.98c23.61,-113.03 123.84,-197.93 243.88,-197.93 137.6,0 249.15,111.55 249.15,249.15 0,137.6 -111.55,249.15 -249.15,249.15zm-37.48 -881.96c-87.52,0 -162.38,-54.25 -192.76,-130.96l-294.98 0 -890.76 908.41 -953.36 14.02c33.43,-47.61 68.4,-96.19 104.88,-145.75 157.46,-5.69 413.87,-11.8 777.92,-18.2 24.89,-2.69 342.39,-302.55 952.5,-899.59l299.65 0c27.21,-82.7 105.09,-142.43 196.91,-142.43 114.46,0 207.25,92.79 207.25,207.25 0,114.46 -92.79,207.25 -207.25,207.25zm1924.63 7579.81l-661.46 -670.28 -436.56 8.82 0 -665.87c22.77,-24.27 459.33,-452.01 1309.69,-1283.23l0 -1177.4 363.47 -363.47 1.97 135.47 -255.2 245.63 4.41 1208.27 -1327.33 1265.6 0 546.81 361.6 0 732.02 705.56 8.82 2200.46 432.15 454.2 -4.41 158.75 -542.4 -590.9c-0.16,-2.94 1.31,-127.88 4.41,-374.83l8.82 -1803.59zm224.91 2046.14l-13.23 -277.82 -44.1 -1869.73 -820.21 -754.06c0.43,-23.52 -1.04,-174.93 -4.41,-454.21l1093.62 -1111.25 4.41 -1075.98 140.58 -210.88 1.89 130.44 -63.08 102.51c0,0 15.59,219.77 10.07,740.5 -9.64,116.6 -18.54,234.03 -26.68,352.29 -87.96,97.69 -449.9,496.21 -1046.14,1107.67l8.82 366.01 793.75 784.93 66.13 2090.2 203.75 241.74 13.18 183.51 -318.35 -345.87zm231.6 -3852.73c8.91,-7.92 8.9,-7.64 0,0zm-79.41 1619.19l-568.85 -674.69c0,33.63 0,-125.12 0,-476.25l652.64 -599.73 -4.38 131.48c-35.99,31.98 -217.51,197.64 -544.55,496.97l-4.41 427.74c0,0 194.53,193.18 529.44,618.18 2,652.34 23.4,1326.32 64.18,2021.89l-75.56 16.75 -48.51 -1962.34zm-399.01 8162.32l0 -416.72 136.69 0 0 416.72 -136.69 0zm240.5 -14.87l5.15 -375.97c14.62,-3.51 29.89,-5.39 45.59,-5.39 107.16,0 194.03,86.87 194.03,194.03 0,107.16 -86.87,194.03 -194.03,194.03 -17.56,0 -34.58,-2.33 -50.74,-6.7zm2725.26 -5922.21c37.08,-44.89 74.61,-77.33 112.61,-97.33 -35.52,34.33 -73.06,66.77 -112.61,97.33zm-323.92 -2896.48c8.09,2.85 16.18,6.93 24.27,12.21 -8.18,-4.06 -16.26,-8.13 -24.27,-12.21zm353.19 6631.21c-1088.25,475.66 -1778.51,105.24 -2070.82,-1111.26l263.24 -8.82c-277.65,-327.39 -347.85,-997.67 -210.6,-2010.83 119.23,-12.51 228.91,-93.35 329.04,-242.53 733.11,47.65 1286.41,-72.77 1659.87,-361.29 -106.67,129.14 -209.54,361.29 -308.58,696.43 -3.96,13.38 -7.86,26.76 -11.71,40.15 8.85,-3.07 21.61,-4.7 38.28,-4.88l-40.13 45.86c13.99,15.87 39.12,35.87 75.41,59.98 379.26,-74.4 661.49,-444.81 846.67,-1111.25 128.44,-288.86 363.63,-429.97 705.55,-423.34 706.72,456.54 730.24,397.74 70.56,-176.39 284.25,-162.81 642.91,-556.75 1075.97,-1181.8 361.17,-432.19 878.58,-455.71 1552.23,-70.56 -180.23,-292.65 -497.73,-422 -952.5,-388.06l88.19 -423.33c-569.13,632.71 -1174.73,1056.04 -1816.81,1270 -48.76,403.36 -419.18,867.85 -1111.25,1393.48 -222.8,209.64 -622.62,356.63 -1199.45,440.97 -947.61,112.83 -1323.9,-598.6 -1128.89,-2134.31l546.81 -299.86c143.3,260.57 449.04,301.72 917.22,123.47l440.98 -582.08c580.52,446.22 609.91,851.91 88.19,1217.08 -171.15,139.11 -165.27,250.82 17.64,335.14 190.02,92.62 331.13,10.31 423.33,-246.94 273.86,-375.03 197.42,-857.16 -229.3,-1446.39 -337.72,-344.39 -643.46,-644.26 -917.23,-899.59 -134.86,339.09 33.44,629 504.9,869.74 -114.89,-40.59 -230.27,163.38 -346.14,611.93 -155.35,-205.53 -478.73,-229.05 -970.14,-70.56l-440.98 211.67c101.43,-410.31 95.55,-1051.19 -17.64,-1922.64 1487.17,288.08 2369.12,88.17 2645.84,-599.72l793.75 1181.8 141.11 1234.73 141.11 -1516.95 -687.91 -617.36c-457.74,-826.33 -528.29,-1414.29 -211.67,-1763.89 359.13,-299.95 441.45,-635.09 246.94,-1005.42 121.15,-350.52 438.65,-503.39 952.51,-458.61 -150.76,-18.04 -262.47,-182.67 -335.14,-493.89 -195.18,-144.29 -253.98,-314.8 -176.39,-511.53 -447.96,-769.62 -689.02,-940.13 -723.2,-511.53 146.31,274.89 199.23,504.19 158.75,687.92 379.83,224.34 532.7,400.73 458.61,529.17l-635 458.61c-209.82,146.83 -186.3,370.26 70.56,670.28 104.71,199.74 -77.56,382.01 -546.81,546.8 -427.83,393.88 -339.63,852.49 264.59,1375.84 -301.52,724.12 -1142.31,912.27 -2522.37,564.44 280.97,-439.02 704.3,-621.29 1270,-546.8 -317.57,-272.79 -717.38,-360.98 -1199.44,-264.59 122.85,-1241.45 52.29,-2387.98 -211.67,-3439.58l493.89 -70.56c-99.47,437.79 129.84,731.77 687.92,881.95 -68.63,48.26 -98.03,242.29 -88.2,582.08 126.08,111.51 214.28,399.61 264.59,864.31 123.19,-101.44 181.99,-283.71 176.39,-546.81 -194.38,-166.39 -264.94,-395.7 -211.67,-687.92 129.13,-53.67 323.15,122.72 582.08,529.17 63.45,-205.94 -18.86,-435.25 -246.94,-687.92 -610.64,-526.27 -869.34,-931.96 -776.11,-1217.08 -46.43,-512.89 265.19,-836.27 934.86,-970.14 361.57,-112.09 326.29,-200.29 -105.84,-264.59 -848.16,160.03 -1242.1,624.52 -1181.8,1393.48l-511.53 70.55c-85.46,-626.54 38.02,-1161.59 370.42,-1605.14 580.97,-758.6 1283.09,-779.24 2106.34,-61.94l36.91 -13.1c890.23,-307.48 1631.06,45.3 2222.5,1058.33 695.34,96.73 1171.59,608.26 1428.75,1534.59 436.07,198.27 612.46,592.2 529.17,1181.8l255.78 317.5c338.13,396.51 464.55,1040.33 379.24,1931.46l-1.26 12.98c-399.13,-72.38 -738.27,27.65 -1017.43,300.08l-286.64 -449.8c-263.55,-229.1 -606.04,-321.71 -1027.47,-277.81 69.36,294.62 -36.47,642.99 -317.5,1045.11 320.67,-31.58 564.68,-265.29 732.01,-701.13l564.45 17.64c72.63,-3.79 178.46,149.08 317.5,458.61 1007.12,-876.07 594.79,381.51 1072.39,-219.16l-31.7 -115.98c30,13.08 58.9,27.71 86.72,43.87 6.24,-8.47 12.62,-17.22 19.12,-26.23l6.22 -8.65c145.62,5.52 255.57,149.42 329.86,431.67 172.02,351.94 218.74,881.21 140.17,1587.81 494.02,428.11 494.02,833.81 0,1217.09l423.33 88.19c99.83,271.06 58.67,800.23 -123.47,1587.5 314.43,486.04 308.55,1132.8 -17.64,1940.28 -392.52,-483.68 -898.17,-660.07 -1516.95,-529.16 290.16,-199.77 313.68,-511.39 70.56,-934.86 -419.2,-163.87 -666.15,-352.02 -740.83,-564.45 245.51,-386.03 292.55,-891.68 141.11,-1516.95 187.81,67.31 305.4,32.03 352.78,-105.83 -142.62,-180.73 -307.25,-163.09 -493.89,52.92 118.75,476.6 1.16,1035.16 -352.78,1675.69 -464.38,687.69 -911.24,905.24 -1340.56,652.64 -605.75,-575.08 -1199.6,-428.09 -1781.53,440.98 -228.86,-94.19 -422.89,-47.15 -582.08,141.11l705.55 35.28c416.32,-862.81 980.77,-986.28 1693.34,-370.42 42.56,327.07 124.87,585.77 246.94,776.11 174.94,-154.74 280.78,-401.69 317.5,-740.83 224.63,21.75 465.7,-101.73 723.2,-370.42 255.22,-115.18 490.4,-138.7 705.55,-70.56 327.59,888.01 110.04,1299.58 -652.63,1234.73 283.42,300.21 536.25,282.57 758.47,-52.92 718.95,-111.44 1265.76,47.31 1640.42,476.25 -119.04,911.1 -530.61,1628.42 -1234.73,2151.95 -409.57,-225.76 -574.2,-537.38 -493.89,-934.86 77.42,-681.72 -198.92,-952.18 -829.03,-811.39 712.08,774.33 535.7,1285.86 -529.16,1534.58 269.93,268.94 605.07,163.11 1005.42,-317.5 50.07,228.83 211.75,508.11 485.05,837.86l-299.86 423.33c66.3,716.86 -262.96,1134.31 -987.78,1252.36 -78.74,103.52 -72.86,56.48 17.64,-141.11 -63.95,-430.06 -287.38,-641.72 -670.28,-635 -253.33,183.91 -559.07,189.79 -917.22,17.64 -419.44,-178.54 -672.27,-84.46 -758.48,282.22 -164.26,327.81 -611.11,604.16 -1340.55,829.03 707.02,187.18 1206.79,22.55 1499.3,-493.89 -185.93,-501.66 108.05,-531.06 881.95,-88.19 744.22,-253.32 1120.52,-88.69 1128.89,493.89 -314.61,508.42 -820.26,802.4 -1516.95,881.94 -202.86,419.31 -873.14,642.74 -2010.83,670.28 -803.96,-138.01 -1192.02,-602.5 -1164.17,-1393.47 276.06,-370.73 193.74,-917.54 -246.95,-1640.42 325.82,-139.26 631.56,-162.78 917.23,-70.56 423.32,216.23 734.94,216.23 934.86,0 -270.94,-31.97 -559.04,-73.13 -864.31,-123.47 -235.79,-187.17 -535.65,-216.57 -899.58,-88.19 24.09,-787.95 24.09,-1393.56 0,-1816.81 454.42,661.8 1077.66,785.28 1869.72,370.42 -37.16,-31.65 245.06,-225.68 846.67,-582.09 515.33,589.65 380.1,1224.65 -405.69,1905 602.87,-210.04 920.37,-639.25 952.5,-1287.64 -275.04,-619.93 -269.16,-919.79 17.64,-899.58 926.07,536.05 1478.75,665.41 1658.05,388.06 -1288.75,-287.58 -1741.48,-822.63 -1358.19,-1605.15l-194.03 0c-47.19,655.74 -503.49,1252.55 -1368.9,1790.45zm-5305.53 4227.07c0,-133.95 108.58,-242.53 242.53,-242.53 60.85,0 116.49,22.41 159.05,59.43l-73.06 74.48c-23.61,-18.72 -53.5,-29.91 -85.99,-29.91 -76.51,0 -138.53,62.02 -138.53,138.53 0,76.51 62.02,138.53 138.53,138.53 76.51,0 138.53,-62.02 138.53,-138.53 0,-22.73 -5.48,-44.18 -15.18,-63.1l79.18 -70.38c25.28,38.28 40,84.16 40,133.48 0,133.95 -108.58,242.53 -242.53,242.53 -133.95,0 -242.53,-108.58 -242.53,-242.53zm1506.64 401.03c2.41,27.08 -6.41,-8.2 -26.46,-105.83 272.54,-41.42 393.07,64.41 361.6,317.5l-158.75 -17.64c74.85,-144.53 16.05,-209.2 -176.39,-194.03zm-5965.99 -6635.88l0.1 4.31c-1.32,-1.56 -1.35,-3 -0.1,-4.31zm1614.07 -79.47l-269 -224.9 -105.83 -57.33 -366.01 4.41 -313.09 361.6c-358.91,-18.08 -545.62,-19.52 -560.14,-4.31l-13.13 -595.41 61.74 -61.74c-193.23,-157.37 -294.66,-407.26 -304.28,-749.66 -28.58,-526.1 9.64,-845.07 114.66,-956.91 40.02,-34.69 12.09,-169.92 -83.79,-405.7 -116.79,-298.87 -93.27,-598.73 70.56,-899.59 67.55,-219.93 174.86,-368.39 321.91,-445.38l7.34 -3.77 -5.15 -7.28c-140.31,-201.34 -128.55,-421.82 35.28,-661.46l352.78 202.85 -8.82 1464.03 855.49 811.39 -585.59 -7.22 0.01 -1.96c0,-133.95 -140.18,-242.53 -313.09,-242.53 -172.91,0 -313.09,108.58 -313.09,242.53 0,133.95 140.18,242.53 313.09,242.53 147.6,0 271.36,-79.13 304.42,-185.6l605.27 11.78 -8.8 595.35 -338.07 0c-25.34,-94.82 -127.53,-165.75 -249.73,-165.75 -141.25,0 -255.76,94.76 -255.76,211.66 0,116.9 114.51,211.66 255.76,211.66 129.29,0 236.18,-79.41 253.35,-182.49l347.68 4.29c-9.18,438.03 -13.59,658.52 -13.23,661.46l-340.32 -9.45c-30.48,-99.89 -141.57,-173.94 -273.94,-173.94 -155.87,0 -282.22,102.66 -282.22,229.3 0,126.64 126.35,229.3 282.22,229.3 155,0 280.81,-101.52 282.21,-227.18l340.87 9.3 -4.41 339.55 317.5 317.5 -114.65 119.07zm1347.57 482.78c-9.64,7.91 -21.87,11.86 -36.64,11.86 -19.43,0 -34.71,-6.92 -45.81,-20.79 -13.31,-16.94 -19.95,-44.36 -19.95,-82.32 0,-23.85 2.45,-43.13 7.34,-57.71 4.94,-14.63 12.23,-25.87 21.92,-33.73 9.64,-7.85 21.83,-11.76 36.5,-11.76 10.82,0 20.32,2.17 28.55,6.54 8.19,4.38 14.96,10.68 20.23,18.91 5.27,8.19 9.4,18.2 12.42,30.01 3.05,11.81 4.56,27.75 4.56,47.74 0,23.71 -2.45,42.9 -7.29,57.48 -4.85,14.63 -12.14,25.87 -21.83,33.77zm-81.14 -1106.51l-0.66 297.13 -147.48 0 -1.32 -297.13 149.46 0zm220.06 297.13l-167.77 0 0.67 -297.13 167.77 0 -0.67 297.13zm467.27 0l0.67 -297.13 169.18 0 2.7 297.13 -172.55 0zm-915.86 -297.13l2.58 297.13 -162.63 0 0.67 -297.13 159.38 0zm503.04 1118.37c-15.81,0 -28.69,-4.38 -38.71,-13.17 -9.97,-8.8 -16,-21.17 -18.02,-37.07l23.71 -1.97c2.02,11.19 5.88,19.28 11.57,24.31 5.69,5.04 12.98,7.58 21.92,7.58 7.62,0 14.3,-1.74 20.08,-5.27 5.79,-3.48 10.49,-8.14 14.11,-14.02 3.63,-5.83 6.68,-13.73 9.18,-23.66 2.49,-9.92 3.71,-20.04 3.71,-30.34l-0.14 -4.98c-4.94,7.9 -11.71,14.34 -20.27,19.24 -8.56,4.93 -17.88,7.38 -27.85,7.38 -16.7,0 -30.81,-6.07 -42.38,-18.2 -11.52,-12.09 -17.31,-28.08 -17.31,-47.93 0,-20.51 6.02,-36.97 18.11,-49.49 12.04,-12.46 27.14,-18.72 45.35,-18.72 13.07,0 25.07,3.53 35.98,10.63 10.86,7.06 19.1,17.13 24.74,30.25 5.64,13.07 8.47,32.03 8.47,56.82 0,25.82 -2.78,46.38 -8.38,61.66 -5.59,15.34 -13.97,26.96 -25.02,34.95 -11.05,8 -23.99,12 -38.85,12zm-19.16 -11299.82l-355.33 0c34.7,-44.82 70.53,-90.37 107.5,-136.64l212.55 21.98c13.96,-81.68 158.01,-225.73 432.16,-432.15l70.55 79.37 -467.43 467.44zm-865.4 12143.1l-150.7 0 0 -202.07 145.9 0 0 23.71 -119.09 0 0 62.09 111.47 0 0 23.7 -111.47 0 0 68.86 123.89 0 0 23.71zm-282.12 -416.17l0 23.71 -133.78 0c-0.18,-5.97 0.8,-11.71 2.92,-17.26 3.43,-9.08 8.94,-18.06 16.51,-26.86 7.57,-8.8 18.39,-18.96 32.46,-30.48 21.87,-18.02 36.73,-32.27 44.49,-42.8 7.81,-10.54 11.71,-20.51 11.71,-29.92 0,-9.83 -3.52,-18.11 -10.58,-24.88 -7.05,-6.73 -16.27,-10.11 -27.61,-10.11 -11.99,0 -21.59,3.57 -28.79,10.72 -7.19,7.1 -10.81,16.98 -10.91,29.63l-25.4 -2.54c1.74,-19 8.33,-33.49 19.71,-43.46 11.43,-9.97 26.72,-14.96 45.96,-14.96 19.37,0 34.76,5.37 46.04,16.14 11.34,10.77 16.98,24.13 16.98,40.03 0,8.09 -1.64,16.04 -4.98,23.84 -3.29,7.86 -8.8,16.09 -16.46,24.74 -7.72,8.61 -20.47,20.51 -38.25,35.56 -14.91,12.52 -24.5,20.98 -28.73,25.45 -4.24,4.47 -7.72,8.94 -10.49,13.45l99.2 0zm165.66 27.1c-15.81,0 -28.69,-4.38 -38.71,-13.17 -9.97,-8.8 -16,-21.17 -18.02,-37.07l23.71 -1.97c2.02,11.19 5.88,19.28 11.57,24.31 5.69,5.04 12.98,7.58 21.92,7.58 7.62,0 14.3,-1.74 20.08,-5.27 5.79,-3.48 10.49,-8.14 14.11,-14.02 3.63,-5.83 6.68,-13.73 9.18,-23.66 2.49,-9.92 3.71,-20.04 3.71,-30.34l-0.14 -4.98c-4.94,7.9 -11.71,14.34 -20.27,19.24 -8.56,4.93 -17.88,7.38 -27.85,7.38 -16.7,0 -30.81,-6.07 -42.38,-18.2 -11.52,-12.09 -17.31,-28.08 -17.31,-47.93 0,-20.51 6.02,-36.97 18.11,-49.49 12.04,-12.46 27.14,-18.72 45.35,-18.72 13.07,0 25.07,3.53 35.98,10.63 10.86,7.06 19.1,17.13 24.74,30.25 5.64,13.07 8.47,32.03 8.47,56.82 0,25.82 -2.78,46.38 -8.38,61.66 -5.59,15.34 -13.97,26.96 -25.02,34.95 -11.05,8 -23.99,12 -38.85,12zm-235.71 -505.61l-21.92 61.24 -28.36 0 77.51 -202.07 29.4 0 82.27 202.07 -30.43 0 -23.38 -61.24 -85.09 0zm379.72 56.63c-12.37,-5.31 -22.01,-13.31 -29.02,-24.04 -7.05,-10.67 -10.72,-22.76 -11.1,-36.26l25.12 -2.26c1.18,10.16 3.95,18.49 8.33,25.03 4.37,6.49 11.14,11.75 20.32,15.8 9.17,4 19.52,6.02 30.99,6.02 10.21,0 19.19,-1.51 27,-4.56 7.81,-3.06 13.59,-7.25 17.4,-12.56 3.81,-5.32 5.74,-11.1 5.74,-17.31 0,-6.3 -1.83,-11.81 -5.5,-16.56 -3.67,-4.7 -9.74,-8.65 -18.2,-11.9 -5.41,-2.07 -17.41,-5.36 -35.99,-9.83 -18.58,-4.47 -31.56,-8.65 -38.99,-12.6 -9.64,-5.08 -16.79,-11.39 -21.5,-18.87 -4.75,-7.47 -7.1,-15.89 -7.1,-25.16 0,-10.25 2.92,-19.8 8.7,-28.65 5.79,-8.89 14.21,-15.61 25.36,-20.22 11.1,-4.61 23.47,-6.92 37.06,-6.92 14.96,0 28.18,2.4 39.61,7.25 11.43,4.8 20.22,11.9 26.38,21.31 6.17,9.36 9.46,19.99 9.93,31.84l-25.68 1.97c-1.37,-12.74 -6.02,-22.38 -13.97,-28.88 -7.95,-6.53 -19.71,-9.78 -35.23,-9.78 -16.18,0 -27.99,2.96 -35.38,8.89 -7.38,5.93 -11.1,13.08 -11.1,21.45 0,7.24 2.64,13.22 7.86,17.92 5.17,4.66 18.58,9.5 40.31,14.39 21.73,4.94 36.64,9.22 44.73,12.89 11.71,5.41 20.42,12.23 26.01,20.56 5.6,8.27 8.38,17.82 8.38,28.64 0,10.77 -3.06,20.84 -9.22,30.34 -6.17,9.5 -14.96,16.89 -26.49,22.15 -11.52,5.27 -24.45,7.91 -38.89,7.91 -18.26,0 -33.54,-2.68 -45.87,-8zm4617.41 -5000.89l-8.82 -405.69 343.29 -299.28 -4.48 126.43 -215.34 190.49 8.82 388.05 190.63 206.97 -0.87 192.9 -313.23 -399.87zm541.07 10237.41l8.82 -599.72 335.14 0c6.14,12.32 -29.14,209.29 -105.84,590.9l-238.12 8.82z"/>
    <path id="1" class="fil1 str0" d="M7509.08 22963.44c11.75,0.34 11.75,0.45 0,0zm-383.7 -180.46l-1305.29 4.41 -4.4 -52.92 -2.21 -908.41 -579.88 0c-114.22,-23.7 -176.69,-85.43 -187.41,-185.2l0 -216.08c8.28,-137.95 67.08,-199.68 176.39,-185.21l760.66 -0.01c52.87,29.23 94.79,90.97 138.94,158.75 0,0 122.73,14.7 328.52,0l110.22 -101.42 432.16 -17.64 8.82 -220.48 873.13 -829.03 643.82 8.82c173.5,-47.53 241.11,75.94 202.84,370.41l1340.56 -17.64c-15.68,56.84 -9,257.85 -29.47,520.45 -45.96,1.49 -606.53,18.94 -1588.84,17.54 0,0 11.76,116.12 8.82,286.63l-321.91 17.64c-9.32,40.83 -15.2,124.62 -17.64,251.36l1724.82 1755.61c33.86,-21.18 73.88,-33.43 116.77,-33.43 121.77,0 220.48,98.71 220.48,220.48 0,121.77 -98.71,220.48 -220.48,220.48 -121.77,0 -220.48,-98.71 -220.48,-220.48 0,-47.31 14.9,-91.15 40.26,-127.05 -206.9,-223.2 -812.15,-823.99 -1815.72,-1802.38l-952.5 -8.82c-28.37,87.48 -87.16,128.64 -176.39,123.47l-2.29 434.28 -109.37 0 6.97 -436.52c-147.1,-18.35 -226.48,-81.56 -238.13,-189.62l-445.38 4.41c18.54,-135.34 -15.39,-227.2 -101.8,-275.6l-687.57 2.21c-74.98,-11.2 -113.2,27.75 -114.66,116.86l0 154.34c45.97,83.93 127.55,119.2 244.75,105.83 346.9,1.47 560.04,-37.47 560.04,-37.47 8.83,596.77 6.63,948.07 6.63,948.07l361.6 -8.82 0 -956.91 132.29 -17.64 4.41 974.55 264.59 8.82 4.43 -277.85 110.6 0 -1.52 288.91 295.45 -4.41 4.41 -141.11 396.88 8.82 -13.22 449.46c-33.33,-0.98 -161.21,-3.81 -383.66,-8.48l-0.04 -171.98zm-213.39 -1759.76c0,0 -285.89,-33.81 -1091.4,-39.69 0,0 -92.66,-139.42 -164.94,-444.27l-83.69 0 0.86 -382.83 167.86 0.35 -0.86 382.48 -40.7 0c49.36,117.77 101.77,302.21 145.73,382.51 0,0 304.27,-4.4 992.19,-4.4l952.5 -899.58 732.02 -17.64 458.61 -485.07 0 -2222.51 -405.7 -370.42 -723.19 -8.82 -2416.54 -2398.89 -17.64 -987.78 -687.91 -635 0 -246.95 -855.49 -767.29 22.03 -2006.41c-14.35,-8.43 191.93,-234.63 618.83,-678.57l-243.25 1.99 0 -136.7 4224.53 -22.05 1003.2 -954.7 491.83 1.78 1.87 129.23 -443 -5.34 -970.14 952.5 -3884.22 31.81 -737.91 746.19 26.44 1912.36c52.29,45.77 337.46,304.97 855.51,777.58l0 238.12 687.92 643.82 8.82 952.5 2390.07 2372.44 679.1 8.82 467.43 432.15 0 2284.25 -537.98 546.8 -696.74 0 -926.05 917.23zm-67 -254.51c-576.21,23.52 -835.64,11.02 -835.64,11.02 -1.82,-109 5.7,-160.5 4.4,-240.47l-18.45 0 0.86 -381.95 158.82 0.33 -0.85 381.62 -74.61 0c3.59,107.4 3.72,187.57 2.59,191.97 24.54,0 48.41,-0.08 71.6,-0.22 387.83,-2.44 585.45,-24.03 585.45,-24.03l987.78 -917.23 635 -26.46c229.31,-282.22 379.24,-451.99 379.24,-451.99l12.14 -1838.86 -273.41 -343.95 -829.03 0 -2460.62 -2504.76 -35.28 -926.04c-270.47,-258.71 -394.67,-405.7 -394.67,-405.7 -259.87,-4.87 -340.72,10.57 -372.62,-8.82 -117.59,-70.55 -154.34,-114.65 -154.34,-114.65 -17.64,-223.43 -7.72,-342.86 -7.72,-342.86l-130.09 2.21c-6.8,-244.27 -6.83,-350.47 -0.08,-318.61l275.61 2.2 0 319.71 -97.01 2.21 6.61 306.48 127.88 88.19 405.7 4.41c276.35,273.41 440.98,458.62 440.98,458.62 20.6,623.25 24.28,886.37 24.28,886.37l2385.69 2460.63 793.75 0 379.24 396.88 0 1913.82 -440.97 537.99 -652.64 0c-594.14,581.78 -894,875.76 -899.59,881.94zm-83.78 -211.66c-436.9,17.83 -533.23,13.68 -554.28,10.64l0.93 -409.94 206.55 0.43 2.9 317.15c223.38,-4.4 335.08,-10.89 335.08,-10.89 658.52,-611.49 906.21,-890.77 906.21,-890.77 423.33,-17.64 588.7,-15.44 588.7,-15.44 251.36,-271.2 288.83,-304.25 288.83,-304.25 8.09,-1225.91 9.95,-1664.68 9.95,-1664.68 -193.29,-213.86 -220.5,-238.12 -220.5,-238.12 -552.69,0 -801.47,-7.71 -801.47,-7.71 -1640.41,-1669.84 -2527.87,-2543.35 -2527.87,-2543.35 -23.52,-617.36 -17.64,-910.6 -17.64,-910.6 -224.16,-274.15 -341.76,-392.48 -341.76,-392.48 -120.27,12.32 -323.79,0.45 -425.29,-2.1l-11.95 -10.72 -91.28 -93.3c-162.37,-167.95 -237.49,-256.49 -237.49,-256.49l-148.78 -156.55 8.82 -401.29 -635.01 -630.59 48.51 -145.52 692.33 736.43c3.09,311.02 4.56,450.66 4.41,418.92 165.45,174.85 269.5,287.4 326.07,354.35 15.75,20.4 44.81,57.25 81.6,100 163.43,5.9 428.77,7.49 428.77,7.49 276.35,273.41 383.66,449.8 383.66,449.8 20.6,623.25 24.28,886.37 24.28,886.37 1590.46,1640.42 2459.56,2493.7 2459.56,2493.7 529.17,0 827.92,22.05 827.92,22.05 252.83,264.59 255.76,280.01 255.76,280.01 0,1275.88 -11.01,1733.03 -11.01,1733.03 -293.98,358.66 -339.55,359.4 -339.55,359.4 -435.09,0 -571.06,17.64 -571.06,17.64 -594.14,581.78 -940.31,891.2 -945.9,897.38zm17.48 -857.89c-85.1,145.24 -207.02,244.89 -365.73,298.91l0.91 100.22 -205.88 0 0.4 -176.39 203.87 0 0.03 3.25c100.89,-43.54 196.97,-118.95 288.22,-226.2l0 -181.04 176.39 -0.41 0 181.66 -98.21 0zm-78.18 -449.87l0 -190.46 176.39 -0.41 0 191.24 -176.39 -0.37zm176.39 -237.45l-176.39 -0.37 0 -163.98 176.39 -0.41 0 164.76zm0 -211.97l-176.39 -0.37 0 -154.87 176.39 -0.41 0 155.65zm0 -202.82l-176.39 -0.37 0 -172.72 176.39 -0.41 0 173.5zm0 -220.33l-176.39 -0.37 0 -164.08 176.39 -0.41 0 164.86zm0 -211.65l-176.39 -0.37 0 -190.29 176.39 -0.41 0 191.07zm-2221.2 -7379.85c-181.74,1.97 -302.66,5.1 -362.74,9.37 -5.81,53.06 -8.81,106.98 -8.81,161.59 0,179.58 32.3,351.62 91.39,510.62 703.53,-7.62 1223.49,-8.69 1481.38,-8.61 11.47,-123.28 115.21,-219.77 241.48,-219.77 133.95,0 242.53,108.58 242.53,242.53 0,133.95 -108.58,242.53 -242.53,242.53 -63.06,0 -120.51,-24.08 -163.64,-63.52l93.88 -59.29c20.48,11.96 44.32,18.81 69.76,18.81 76.51,0 138.53,-62.02 138.53,-138.53 0,-76.51 -62.02,-138.53 -138.53,-138.53 -76.51,0 -138.53,62.02 -138.53,138.53 0,33.8 12.11,64.79 32.22,88.83 -36.8,28.92 -64.35,50.02 -82.6,63.29 -18.44,-22.9 -32.84,-49.21 -42.04,-77.84 -769.66,0 -1293.71,12.42 -1448.15,16.58 13.38,28.89 27.69,57.27 42.87,85.1l-102.69 28.57c-114.52,-217.91 -179.33,-466.04 -179.33,-729.3 0,-867.01 702.85,-1569.86 1569.86,-1569.86 867.01,0 1569.86,702.85 1569.86,1569.86 0,763.73 -545.38,1400.08 -1267.91,1540.85l-4.27 337.31 -92.6 4.41 -4.41 1327.34c1332.38,1334.41 2012.95,2009.1 2041.71,2024.07l176.39 154.34c505.64,12.21 759.93,18.09 762.88,17.64l595.32 608.54 4.42 2932.49 296.53 339.16c16.01,-6.57 33.54,-10.21 51.92,-10.21 75.5,0 136.7,61.2 136.7,136.7 0,75.5 -61.2,136.7 -136.7,136.7 -75.5,0 -136.7,-61.2 -136.7,-136.7 0,-18.34 3.62,-35.83 10.16,-51.81l-318.91 -365.33 -17.62 -2963.36 -515.94 -533.58c-551.88,-16.73 -817.94,-13.79 -798.16,8.82l-2218.08 -2266.59c-14.69,-917.23 -23.14,-1365.92 -23.14,-1365.92l-136.73 2.2 2.22 -271.2 -132.21 -4.32 -2.21 271.2 -134.49 0 -2.21 218.28 286.63 315.29c17.64,590.9 39.69,943.68 39.69,943.68 1208.27,1228.85 1799.17,1785.95 1799.17,1785.95l445.39 471.84 736.42 4.41 542.4 564.45c-5.61,1784.75 -8.57,2809.32 -8.85,3073.68 64.88,23.1 111.33,85.08 111.33,157.9 0,92.55 -75.02,167.57 -167.57,167.57 -92.55,0 -167.57,-75.02 -167.57,-167.57 0,-80.07 56.17,-147.03 131.24,-163.62l0.04 -3072.37 -463.02 -454.2 -749.66 -4.41 -1878.56 -1882.98c-285.61,-315.45 -432.59,-466.84 -440.92,-454.17 9.03,-681.9 -23.31,-999.4 -44.1,-952.5 -199.91,-211.67 -273.4,-317.5 -273.4,-317.5l0 -238.13 -132.29 -4.41 4.18 -383.54c-261.11,-92.36 -490.51,-251.85 -667.44,-457.72 -68.49,-79.7 -129.12,-166.34 -180.69,-258.74l105.59 -24.84c39.25,67.11 83.7,130.82 132.77,190.57l231.11 -1.26 1.12 92.31 -149.87 1.07c90.51,93.08 193.28,174.18 305.69,240.69l5.39 -242.96 -121.83 0.91 -2.28 -92.23 488.97 -2.66 2.22 91.21 -237.85 1.81 -0.19 314.31c158.62,72.82 332.49,118.17 515.48,129.93l-3.42 -448.15 -223.4 1.71 -2.05 -91.09 628.28 -3.43 -2.93 89.73 -250.67 1.93 -3.4 451.62c401.5,-12.63 762.28,-186.74 1019.57,-459.51l-710.42 5.53 0 -89.58 787.36 -4.31c160.01,-199.23 269.07,-441.19 307.28,-706.04l-1446.49 -3.88c-12.23,58.49 -48.33,109.25 -98.67,143.47 -21.38,-19.94 -47.49,-44.76 -78.31,-74.45 46.26,-22.22 77.54,-64.58 77.54,-113.17 0,-71.64 -67.95,-129.72 -151.76,-129.72 -83.81,0 -151.76,58.08 -151.76,129.72 0,71.64 67.95,129.72 151.76,129.72 10.57,0 20.89,-0.93 30.85,-2.68l77.87 84.57c-32.99,14.17 -69.85,22.11 -108.72,22.11 -141.25,0 -255.76,-104.64 -255.76,-233.72 0,-129.08 114.51,-233.72 255.76,-233.72 120.3,0 221.21,75.92 248.49,178.17 263.99,-2.56 774.56,-6.47 1460.87,-6.59 2.27,-33.39 3.43,-67.08 3.43,-101.04 0,-55.38 -3.07,-110.05 -9.05,-163.83 -1175.47,-9.23 -2000.67,-11.84 -2475.54,-7.86m2692.3 4428.38c-26.51,-25.4 -51.36,-52.55 -74.35,-81.24 125.95,-131.54 516.88,-523.27 1172.76,-1175.16 25.34,20.22 49.48,41.89 72.29,64.88l-1170.7 1191.52zm944.42 -1353.89c-618.09,608.25 -1013.54,988.86 -1126.74,1097.45 -15.42,-33.77 -28.68,-68.75 -39.56,-104.76 99.35,-97.86 478.15,-471.76 1044.78,-1040.7 42.02,12.87 82.62,28.98 121.52,48.01zm-330.56 -83.78c-458.37,458.71 -778.08,788.23 -869.93,883.27 -0.92,-16.14 -1.4,-32.4 -1.4,-48.77 0,-38.71 2.64,-76.8 7.73,-114.1 72.57,-81.34 304.57,-336.88 679.25,-708.05 48.12,-8.62 97.68,-13.12 148.29,-13.12 12.09,0 24.1,0.27 36.06,0.77zm-204.04 -345.66l0 -943.69 1587.5 -1446.39 -4.41 -1235.13 591.52 -538.12 2.18 150.41 -470.22 427.8 0 1212.68 -1587.51 1472.85c-10.19,20.06 -11.66,283.18 -4.41,789.34l718.79 -4.41 573.26 568.86 0 573.27 4.41 1693.34 599.73 679.1 0 1543.41 198.44 0 8.82 61.73 -299.87 -17.63c0.08,58.25 -1.39,-460.63 -4.41,-1556.64l-590.9 -652.65 -35.28 -2257.78 -476.25 -520.35 -811.39 0zm1421.36 -2486.36c-719.68,721.62 -1224.73,1056.42 -1841.06,1697.77 0,0 -2.94,238.75 -2.17,476.82 0,0 -68.62,112.41 -278.69,329.39 17.92,24.98 28.32,54.67 28.32,86.52 0,88.89 -80.95,160.95 -180.8,160.95 -99.85,0 -180.8,-72.06 -180.8,-160.95 0,-88.89 80.95,-160.95 180.8,-160.95 14.88,0 29.34,1.61 43.18,4.62l-1.5 -1.6c0,0 0.65,-2.57 272.58,-282.79 0,0 4.03,-283.75 5.41,-519.22 25.65,-27.07 1526.41,-1397.83 1820.22,-1675.74 17.64,35.28 54.06,-443.93 42.3,-1267.08 23.35,-19.3 185.39,-158.06 838.71,-830.93l2.34 161.76c-97.26,93.4 -312.07,298.12 -717.99,678.36 0,0 -33.79,424.06 -30.85,1303.07zm-225.31 -220.19c-657.94,699.57 -1379.08,1298.94 -1995.41,1940.29 0,0 -7.35,75.6 -6.58,313.67 0,0 -195.77,216.07 -415.94,441.53 23.75,25.05 38.11,57.59 38.11,93.15 0,79.15 -71.07,143.31 -158.75,143.31 -87.68,0 -158.75,-64.16 -158.75,-143.31 0,-79.15 71.07,-143.31 158.75,-143.31 13.08,0 25.8,1.43 37.95,4.12 41.55,-44.67 168.54,-181.6 380.63,-413.68 0,0 -8.1,-100.75 -6.72,-336.22 573.4,-605.21 1351.73,-1313.42 2009.84,-1935.92 0,0 14.37,-413.06 2.61,-1236.21 23.52,-19.44 214.27,-138.07 879.84,-823.99 0,0 72.19,-11.29 203.42,-20.32l1.67 115.04c-51.92,1.44 -110.35,3.51 -174.72,6.45 0,4.19 -211.68,213.38 -793.76,769.49 0,0 -5.13,346.9 -2.19,1225.91zm-272.3 -54.24l-679.1 643.83 -1397.89 1274.41 0 348.37 -401.28 330.73 0 511.53 108.09 93.19c13.89,-5.56 28.82,-8.6 44.37,-8.6 74.28,0 134.49,69.1 134.49,154.34 0,85.24 -60.21,154.34 -134.49,154.34 -74.28,0 -134.49,-69.1 -134.49,-154.34 0,-26.36 5.77,-51.16 15.91,-72.86 -30.49,-32.66 -77.8,-85.81 -141.93,-159.44 0.16,-4.41 -1.31,-196.96 -4.41,-577.67l412.31 -343.96 4.41 -330.73 156.55 -167.58c0,0 633.53,-576.58 1882.96,-1758.39 0,0 45.94,-451.81 34.18,-1274.96 23.52,-19.44 288.03,-289.19 953.6,-975.11l384.34 -3.66 1.83 126.23 -357.5 16.33 -886.36 855.49 4.41 1318.51zm632.77 -2689.93l-970.14 952.5 -4150.17 33.99c2.89,-45.57 7.15,-91.02 12.77,-136.3l4053.64 -21.16 1003.2 -954.7 581.12 1.92c4.93,54.78 11.14,97.96 18.59,129.56 0.01,0.81 -183,-1.4 -549.01,-5.81zm-174.21 -255.76l-1040.69 996.6 -3874.88 -8.32c7.92,-44.53 17.18,-88.93 27.77,-133.18l3829.46 -8.44 1027.47 -983.37 722.61 -4.25c0.94,48.01 2.28,92.32 4.02,132.92l-695.76 8.04zm-194.08 -224.9l-956.92 952.51 -3701.23 -4.05c11.23,-37.26 23.44,-74.42 36.6,-111.47l3580.85 -16.77 1049.52 -952.51 875.43 -8.26c-0.16,47.98 -0.04,93.47 0.34,136.44l-884.59 4.11zm-127.9 -264.59l-1062.75 992.19 -3380.7 -20.44c17.21,-41.16 35.65,-82.19 55.27,-123.1l3320.98 -6.4 51.49 -45.68c60.45,-63.55 399,-372.44 1015.67,-926.68l1014.98 8.19 -1.79 117.83 -1013.15 4.09zm1002.42 -384.27c-582.88,12.58 -908.23,17.93 -976,16.04l-1155.35 1058.33 -3172.18 -8.24c21.95,-38.88 45,-77.65 69.15,-116.29l3067.75 -16.58 1164.17 -1058.33 999.37 15.86c0.15,37.49 1.19,73.89 3.09,109.21zm-587.95 -821.81l-1710.98 1675.69 -2855.23 -26.11c22.47,-32.58 45.74,-65.09 69.79,-97.51l2723.71 -8.67 1737.43 -1693.34 726.77 0c-11.05,51.05 -21.25,101.04 -30.58,149.94l-660.91 0zm922.77 -698.62c-61.59,-432.33 -849.46,-605.78 -2363.61,-520.35 -443.66,359.83 -855.24,603.84 -1234.73,732.02 -1325.81,606.36 -2019.61,1256.06 -2081.39,1949.1 -535.36,417.76 -749.97,988.09 -643.82,1710.98 -514.6,451.72 -676.29,942.67 -485.08,1472.85 -476.72,329.89 -697.21,820.84 -661.46,1472.85 -299.03,470.67 -407.81,864.61 -326.32,1181.81 -524.19,612.38 -627.08,1229.75 -308.68,1852.09 -159.46,632.8 -106.54,1238.41 158.75,1816.81 34.52,1226.65 378.48,2158.58 1031.88,2795.77 117.11,112.95 378.75,648 784.93,1605.14 75.83,166.18 452.12,592.45 1128.89,1278.82 464.73,848.31 976.26,1230.49 1534.59,1146.53 295.74,581.27 877.83,807.63 1746.26,679.1 718.01,554.31 1211.9,483.75 1481.67,-211.67 257.15,-364.23 483.51,-375.99 679.09,-35.27 448.33,1026.94 1483.15,1053.39 3104.46,79.37 869.48,-12.61 1448.62,-371.27 1737.43,-1075.97 894.24,-247.19 1294.05,-791.06 1199.45,-1631.6 123.97,-126.47 250.38,-308.74 379.24,-546.81 928.42,-238.72 1437.01,-1006.01 1525.76,-2301.88 519.16,-778.95 575.02,-1569.77 167.57,-2372.44 357.01,-1162.79 257.05,-2177.03 -299.86,-3042.71 173.02,-982.39 -32.76,-1655.61 -617.36,-2019.66 125.87,-1098.92 -53.46,-1810.35 -537.99,-2134.31 16.02,-631.68 -216.23,-1081.48 -696.74,-1349.38 -28.82,-878.93 -540.35,-1440.44 -1534.58,-1684.52 -295.97,-661.54 -1036.81,-1011.37 -2222.51,-1049.51 -1098.3,-690.99 -1980.25,-623.37 -2645.84,202.84zm-3239.5 18201.72c-131.51,0 -238.12,-106.61 -238.12,-238.12 0,-131.51 106.61,-238.12 238.12,-238.12 131.51,0 238.12,106.61 238.12,238.12l-0.75 19.01 -104.89 2.02c1.07,-6.85 1.64,-13.87 1.64,-21.03 0,-74.07 -60.05,-134.12 -134.12,-134.12 -74.07,0 -134.12,60.05 -134.12,134.12 0,74.07 60.05,134.12 134.12,134.12 43.15,0 81.55,-20.38 106.08,-52.04l118.61 -3.04c-32.59,92.65 -120.89,159.08 -224.69,159.08zm2452.91 883.17l-668.05 -675.24c-29.43,26.44 -65.02,46.16 -104.34,56.73l-21.92 -101.92c62.01,-19.05 107.12,-76.81 107.12,-145.09 0,-83.81 -67.95,-151.76 -151.76,-151.76 -83.81,0 -151.76,67.95 -151.76,151.76 0,83.85 67.83,151.76 152.49,151.76l22.35 102.97c-150.32,13.25 -278.84,-104.59 -278.84,-254.73 0,-141.25 114.51,-255.76 255.76,-255.76 194.61,0 315.44,207.88 225.83,375.93l708.4 693.8 -95.28 51.55zm360.2 -217.45l-1118.28 -1070.69c-18.7,5.27 -38.42,8.1 -58.81,8.1 -41.49,0 -80.27,-11.7 -113.17,-31.97 16.02,-20.01 37.22,-47.87 63.59,-83.58 14.94,7.38 31.77,11.55 49.58,11.55 61.89,0 112.07,-50.18 112.07,-112.07 0,-61.89 -50.18,-112.07 -112.07,-112.07 -61.89,0 -112.07,50.18 -112.07,112.07 0,26.41 9.15,50.69 24.43,69.85 -27.73,33.7 -50.49,60.29 -68.25,79.77 -37.27,-38.82 -60.18,-91.55 -60.18,-149.62 0,-119.33 96.74,-216.07 216.07,-216.07 119.33,0 216.07,96.74 216.07,216.07 0,44.05 -13.19,85.04 -35.83,119.2l1090.72 1074.32 -93.87 85.14zm-2504.35 -4497.15l-326.28 0 0 -181.88 326.28 -0.75 0 182.63zm0 -228.26l-326.28 -0.68 0 -173.54 326.28 -0.76 0 174.98zm0 -220.37l-326.28 -0.67 0 -191.66 326.28 -0.56 0 151.05c63.12,2.8 160.77,13.98 316.02,24.3 14.06,-43.32 54.76,-74.64 102.77,-74.64 59.66,0 108.03,48.37 108.03,108.03 0,59.66 -48.37,108.03 -108.03,108.03 -57.86,0 -105.1,-45.5 -107.9,-102.66 -139.36,-7.21 -250.36,-19.99 -310.89,-24.75l0 3.53zm0 -237.82l-326.28 -0.67 0 -165.18 326.28 -0.76 0 166.61zm342.07 -291.31l-342.07 -4.75 0 84.1 -326.28 -0.68 0 -156.07 326.28 -0.76 0 34.4 353.19 8.11c15.79,-28.47 46.16,-47.75 81.03,-47.75 51.14,0 92.6,41.46 92.6,92.6 0,51.14 -41.46,92.6 -92.6,92.6 -51.14,0 -92.6,-41.46 -92.6,-92.6l0.45 -9.2zm174.19 -222.92c-250.4,-6.24 -420.86,-5.72 -516.26,-4.35l0 103.8 -326.28 -0.68 0 -173.92 326.28 -0.76 0 30.98 558.16 -3.57c10.16,14.09 84.19,100.69 300.07,317.64 13.76,-6.76 29.26,-10.56 45.63,-10.56 57.23,0 103.63,46.4 103.63,103.63 0,57.23 -46.4,103.63 -103.63,103.63 -57.23,0 -103.63,-46.4 -103.63,-103.63 0,-25.67 9.35,-49.17 24.8,-67.26 -189.31,-178.82 -308.77,-294.95 -308.77,-294.95zm-267.58 -120.36l-248.68 -74.43 0 73.91 -326.28 -0.68 0 -165.28 326.28 -0.76 0 21.54c51.14,15.95 162.58,50.63 304.58,94.08 0,0 178.26,11.26 530.98,-0.19 20.49,-27.6 53.33,-45.5 90.35,-45.5 62.1,0 112.44,50.34 112.44,112.44 0,62.1 -50.34,112.44 -112.44,112.44 -58.94,0 -107.28,-45.35 -112.05,-103.05 -390.46,-5.52 -560.22,-8.13 -509.27,-7.79l-55.91 -16.73zm-12.44 -164.07c-65.43,-26.55 -160.87,-65.93 -236.24,-102.59l0 54.49 -326.28 -0.68 0 -191.49 326.28 -0.75 0 60.37 293.56 118.91 348.06 0 185.35 -199.32c-11.32,-17.32 -17.91,-38.02 -17.91,-60.25 0,-60.88 49.36,-110.24 110.24,-110.24 60.88,0 110.24,49.36 110.24,110.24 0,60.88 -49.36,110.24 -110.24,110.24 -12,0 -23.56,-1.93 -34.37,-5.47l-220.95 220.95c-323.38,-2.94 -427.74,-4.41 -427.74,-4.41zm151.68 -215.48c-55.93,0 -102.34,-40.84 -110.99,-94.33l-276.93 -2.74 0 26.09 -326.28 -0.67 0 -152.09 326.28 0.66 0 62.99 289.35 -6.5c19.12,-34.75 56.1,-58.29 98.57,-58.29 62.1,0 112.44,50.34 112.44,112.44 0,62.1 -50.34,112.44 -112.44,112.44zm839.77 -2740.42c-49.69,40.4 -104.13,75.21 -162.34,103.46 -205.59,-12.84 -302.36,-11.86 -290.29,2.93l-59.36 80.31 -14.55 0.12c-31.12,0 -61.85,-1.71 -92.09,-5.02l157.18 -198.89 461.45 17.09zm249.36 -958.33l-1108.36 1076.36c-31.54,-13.69 -62.07,-29.29 -91.44,-46.63l1149.86 -1133.26c18.92,33.15 35.63,67.73 49.94,103.53zm289.73 7369.31l-859.94 -8.51 -8.82 -141.11 851.71 -25.55c28.48,-77.59 103.01,-132.95 190.48,-132.95l27.2 -0.73 -10.12 405.71 -17.08 0.72c-73.48,0 -137.84,-39.07 -173.43,-97.58zm-3326.2 -1570.84l-167.86 0 0.4 -176.39 167.85 0 -0.39 176.39zm-301.29 -1444.64l-66.6 0 0 -23.71 160.02 0 0 23.71 -66.6 0 0 178.36 -26.82 0 0 -178.36zm-52.03 -240.56l-24.84 0 0 -158.14c-5.97,5.74 -13.83,11.43 -23.52,17.12 -9.69,5.7 -18.44,9.98 -26.15,12.8l0 -23.99c13.88,-6.49 26.01,-14.39 36.41,-23.71 10.39,-9.26 17.78,-18.25 22.1,-27l16 0 0 202.92zm163.92 -9.78c-9.97,-8.8 -16,-21.17 -18.02,-37.07l23.71 -1.97c2.02,11.19 5.88,19.28 11.57,24.31 5.69,5.04 12.98,7.58 21.92,7.58 7.62,0 14.3,-1.74 20.08,-5.27 5.79,-3.48 10.49,-8.14 14.11,-14.02 3.63,-5.83 6.68,-13.73 9.18,-23.66 2.49,-9.92 3.71,-20.04 3.71,-30.34l-0.14 -4.98c-4.94,7.9 -11.71,14.34 -20.27,19.24 -8.56,4.93 -17.88,7.38 -27.85,7.38 -16.7,0 -30.81,-6.07 -42.38,-18.2 -11.52,-12.09 -17.31,-28.08 -17.31,-47.93 0,-20.51 6.02,-36.97 18.11,-49.49 12.04,-12.46 27.14,-18.72 45.35,-18.72 13.07,0 25.07,3.53 35.98,10.63 10.86,7.06 19.1,17.13 24.74,30.25 5.64,13.07 8.47,32.03 8.47,56.82 0,25.82 -2.78,46.38 -8.38,61.66 -5.59,15.34 -13.97,26.96 -25.02,34.95 -11.05,8 -23.99,12 -38.85,12 -15.81,0 -28.69,-4.38 -38.71,-13.17zm391.02 2135.95l-149.74 0 0.86 -382.37 149.73 0.31 -0.85 382.06zm0.98 -440.97l-149.73 0 0.4 -176.39 149.73 0 -0.4 176.39zm-156.63 -1694.98c-9.97,-8.8 -16,-21.17 -18.02,-37.07l23.71 -1.97c2.02,11.19 5.88,19.28 11.57,24.31 5.69,5.04 12.98,7.58 21.92,7.58 7.62,0 14.3,-1.74 20.08,-5.27 5.79,-3.48 10.49,-8.14 14.11,-14.02 3.63,-5.83 6.68,-13.73 9.18,-23.66 2.49,-9.92 3.71,-20.04 3.71,-30.34l-0.14 -4.98c-4.94,7.9 -11.71,14.34 -20.27,19.24 -8.56,4.93 -17.88,7.38 -27.85,7.38 -16.7,0 -30.81,-6.07 -42.38,-18.2 -11.52,-12.09 -17.31,-28.08 -17.31,-47.93 0,-20.51 6.02,-36.97 18.11,-49.49 12.04,-12.46 27.14,-18.72 45.35,-18.72 13.07,0 25.07,3.53 35.98,10.63 10.86,7.06 19.1,17.13 24.74,30.25 5.64,13.07 8.47,32.03 8.47,56.82 0,25.82 -2.78,46.38 -8.38,61.66 -5.59,15.34 -13.97,26.96 -25.02,34.95 -11.05,8 -23.99,12 -38.85,12 -15.81,0 -28.69,-4.38 -38.71,-13.17zm233.63 -7.62c-13.31,-16.94 -19.95,-44.36 -19.95,-82.32 0,-23.85 2.45,-43.13 7.34,-57.71 4.94,-14.63 12.23,-25.87 21.92,-33.73 9.64,-7.85 21.83,-11.76 36.5,-11.76 10.82,0 20.32,2.17 28.55,6.54 8.19,4.38 14.96,10.68 20.23,18.91 5.27,8.19 9.4,18.2 12.42,30.01 3.05,11.81 4.56,27.75 4.56,47.74 0,23.71 -2.45,42.9 -7.29,57.48 -4.85,14.63 -12.14,25.87 -21.83,33.77 -9.64,7.91 -21.87,11.86 -36.64,11.86 -19.43,0 -34.71,-6.92 -45.81,-20.79zm-1002.31 2537.55c-62.1,0 -112.44,-50.34 -112.44,-112.44 0,-55.79 40.63,-102.08 93.91,-110.92l-1.36 -170.62 -79.23 0 0 -337.55c-18.17,-4.49 -36.26,-9.43 -54.25,-14.81l0.78 352.36 -166.36 0 1.81 -384.63 71.01 0.15c-47.56,-18.77 -94.17,-40.82 -139.51,-66.19l-0.06 9.7 -188.31 0 0.33 -140.95c-89.87,-76.92 -162.66,-162.99 -218.34,-258.18l-100.85 0 0 -175.3 158.75 -0.37 0 166.76c71.26,85.69 147.08,162.91 227.45,231.65l122.15 0 -0.64 95.21c22.55,16.14 45.37,31.69 68.45,46.65l0.67 -141.86 162.08 0 0.39 176.39 -107.62 0c33.7,20.11 67.9,39 102.54,56.67l5.21 0.01 0.01 2.64c17.99,9.11 36.1,17.88 54.31,26.33l0 -28.86 160.1 0.33 -0.86 383.85 -31.79 0c0.53,91.33 1.23,146.98 1.61,173.13 47.55,13.1 82.5,56.68 82.5,108.41 0,62.1 -50.34,112.44 -112.44,112.44zm-734.12 -1688.97l-158.75 -0.33 0 -179.15 158.75 -0.37 0 179.85zm0 -237.82l-158.75 -0.33 0 -152.68 158.75 -0.37 0 153.38zm-246.91 -355.67l0 143.2 -361.64 -0.75 0 -84.55c-108.72,-12.5 -185.88,-25.44 -231.44,-34.09 -8.7,40.83 -44.98,71.45 -88.41,71.45 -49.93,0 -90.4,-40.47 -90.4,-90.4 0,-49.93 40.47,-90.4 90.4,-90.4 43.02,0 79.02,30.06 88.16,70.3 47.64,9.86 124.79,24.12 231.69,38.63l0 -22.55 361.64 -0.84zm0 -59.62l-361.64 -0.75 0 -69.44c-213.15,-21.02 -365.36,-40.1 -456.6,-57.25 -16.25,24.01 -43.74,39.79 -74.92,39.79 -49.93,0 -90.4,-40.47 -90.4,-90.4 0,-49.93 40.47,-90.4 90.4,-90.4 43.91,0 80.52,31.3 88.69,72.81l442.83 74.36 0 -38.94 361.64 -0.83 0 161.05zm0 -220.33l-361.64 -0.75 0 -88.86c-96.73,-17.35 -168.07,-28.72 -214,-37.55 -16.3,37.42 -53.63,63.58 -97.06,63.58 -58.45,0 -105.83,-47.38 -105.83,-105.83 0,-58.45 47.38,-105.83 105.83,-105.83 58.45,0 105.83,47.38 105.83,105.83l-0.04 2.84 205.27 33.77 0 -18.78 361.64 -0.83 0 152.41zm0 -211.65l-361.64 -0.75 0 -52.75 -241.06 -146.9 -524.37 -16.14c-3.01,53.3 -47.2,95.62 -101.26,95.62 -56.01,0 -101.42,-45.41 -101.42,-101.42 0,-56.01 45.41,-101.42 101.42,-101.42 37.17,0 69.69,20 87.34,49.83l538.29 11.79 241.06 139.56 0 -55.2 361.64 -0.84 0 178.62zm246.91 635.31l-158.75 -0.33 0 -143.58 158.75 -0.37 0 144.28zm0 -202.82l-158.75 -0.33 0 -161.43 158.75 -0.37 0 162.13zm-246.91 -670.85l-361.64 -0.75 0 -151.93 361.64 0.73 0 151.95zm592.4 2618.44l-186.4 0 0.89 -385.15 188.07 0.38 -2.56 384.77zm-592.4 -1015.2l0 175.1 -361.64 0 0 -174.26 361.64 -0.84zm0 -59.93l-361.64 -0.75 0 -159.08 361.64 -0.84 0 160.67zm0 -220.37l-361.64 -0.75 0 -177.19 361.64 -0.83 0 178.77zm0 -237.82l-361.64 -0.75 0 -12c-64.9,32.73 -128.44,66.67 -171.86,90.23 2.68,8.33 4.14,17.21 4.14,26.43 0,47.49 -38.5,85.99 -85.99,85.99 -47.49,0 -85.99,-38.5 -85.99,-85.99 0,-47.49 38.5,-85.99 85.99,-85.99 20.26,0 38.89,7.01 53.57,18.72 46.61,-26.82 116.97,-65.39 200.14,-104.79l0 -83.31 361.64 -0.84 0 152.3zm1095.02 1092.35l0.39 -176.39 192.81 0 1.53 176.39 -194.73 0zm395.34 839.37c-63.32,0 -114.65,-51.33 -114.65,-114.65 0,-21.46 5.9,-41.56 16.16,-58.72l-236.29 -225.03 -61.56 0 0.87 -383.74 195.36 0.4 3.34 383.34 -26.76 0 176.09 179.35c14.46,-6.57 30.52,-10.25 47.44,-10.25 63.32,0 114.65,51.33 114.65,114.65 0,63.32 -51.33,114.65 -114.65,114.65zm-8.34 -398.4l-125.03 0 -1.69 -383.2 127.58 0.26 -0.86 382.94zm-642.65 -2540.69l-150.7 0 0 -202.07 145.9 0 0 23.71 -119.09 0 0 62.09 111.47 0 0 23.7 -111.47 0 0 68.86 123.89 0 0 23.71zm-17.7 -519.66l-145.18 0 0.79 -167.57 144.02 0 0.37 167.57zm-204.81 -608.55l-1.98 297.13 -201.1 0 0.68 -297.13 88.26 0c20.58,-121.93 28.66,-234 32.39,-309.28 -17.17,7.06 -36,10.96 -55.73,10.96 -80.98,0 -146.62,-65.64 -146.62,-146.62 0,-80.98 65.64,-146.62 146.62,-146.62 80.98,0 146.62,65.64 146.62,146.62 0,43.1 -18.6,81.86 -48.19,108.68 -12.66,123.14 -19.8,281.18 -21.43,336.26l60.48 0zm866.15 3227.93l-127.97 0 -0.78 -176.39 129.14 0 -0.39 176.39zm-235.45 -1326.96l-76.76 0 0 -24.83 76.76 0 0 24.83zm-199.58 -1292.42l-166.07 0 0 -167.57 166.44 0 -0.37 167.57zm0.69 -311.42l-166.76 0 0 -297.13 119.56 0 5.19 -190.93 183.05 -138.91 -2.21 -489.49 -1214.84 -1225.9c0.07,-73.34 2.51,-131.85 4.33,-175.13 -80.69,-10.15 -142.59,-68.77 -142.59,-139.55 0,-77.93 75.02,-141.11 167.57,-141.11 92.55,0 167.57,63.18 167.57,141.11 0,58.13 -41.74,108.06 -101.36,129.67l-3.06 168.46 1186.22 1195.04 4.41 586.49c-117.59,105.84 -189.62,158.76 -189.62,158.76 -9.39,59.52 -10.97,82.44 -18.81,110.04l1.35 308.58zm-95.24 -573.39c-42.45,0 -80.76,-17.77 -107.86,-46.27 -6.74,25.64 -30.42,118.71 -37.59,322.53l12.35 0 0.65 297.13 -143.02 0 -2.96 -297.13 96.93 0 0 -305.56 52.09 -45.96c-12.36,-21.69 -19.42,-46.81 -19.42,-73.57 0,-82.2 66.63,-148.83 148.83,-148.83 82.2,0 148.83,66.63 148.83,148.83 0,82.2 -66.63,148.83 -148.83,148.83zm73.48 2233.3c-12.37,-5.31 -22.01,-13.31 -29.02,-24.04 -7.05,-10.67 -10.72,-22.76 -11.1,-36.26l25.12 -2.26c1.18,10.16 3.95,18.49 8.33,25.03 4.37,6.49 11.14,11.75 20.32,15.8 9.17,4 19.52,6.02 30.99,6.02 10.21,0 19.19,-1.51 27,-4.56 7.81,-3.06 13.59,-7.25 17.4,-12.56 3.81,-5.32 5.74,-11.1 5.74,-17.31 0,-6.3 -1.83,-11.81 -5.5,-16.56 -3.67,-4.7 -9.74,-8.65 -18.2,-11.9 -5.41,-2.07 -17.41,-5.36 -35.99,-9.83 -18.58,-4.47 -31.56,-8.65 -38.99,-12.6 -9.64,-5.08 -16.79,-11.39 -21.5,-18.87 -4.75,-7.47 -7.1,-15.89 -7.1,-25.16 0,-10.25 2.92,-19.8 8.7,-28.65 5.79,-8.89 14.21,-15.61 25.36,-20.22 11.1,-4.61 23.47,-6.92 37.06,-6.92 14.96,0 28.18,2.4 39.61,7.25 11.43,4.8 20.22,11.9 26.38,21.31 6.17,9.36 9.46,19.99 9.93,31.84l-25.68 1.97c-1.37,-12.74 -6.02,-22.38 -13.97,-28.88 -7.95,-6.53 -19.71,-9.78 -35.23,-9.78 -16.18,0 -27.99,2.96 -35.38,8.89 -7.38,5.93 -11.1,13.08 -11.1,21.45 0,7.24 2.64,13.22 7.86,17.92 5.17,4.66 18.58,9.5 40.31,14.39 21.73,4.94 36.64,9.22 44.73,12.89 11.71,5.41 20.42,12.23 26.01,20.56 5.6,8.27 8.38,17.82 8.38,28.64 0,10.77 -3.06,20.84 -9.22,30.34 -6.17,9.5 -14.96,16.89 -26.49,22.15 -11.52,5.27 -24.45,7.91 -38.89,7.91 -18.26,0 -33.54,-2.68 -45.87,-8zm-935.53 -4692.28c-28.15,19.55 -64.79,31.37 -104.84,31.37 -88.9,0 -160.96,-58.24 -160.96,-130.09 0,-71.85 72.06,-130.09 160.96,-130.09 88.9,0 160.96,58.24 160.96,130.09 0,14.8 -3.06,29.03 -8.69,42.28l420.15 412.36 0 573.27c923.11,914.29 1362.61,1353.79 1362.61,1353.79 -17.64,282.23 -4.41,440.98 -4.41,440.98l-3.61 12.44 -0.66 295.97 -149.66 0 7.92 -297.13 41.86 0 11.54 -434.62 -1322.92 -1314.1 -4.41 -564.45 -405.84 -422.07zm1918.38 2260.93l-1344.97 -1397.89 -4.41 -740.83 -98.53 -95.87c-14.67,3.27 -30.15,5.03 -46.14,5.03 -93.76,0 -169.77,-60.22 -169.77,-134.5 0,-74.28 76.01,-134.5 169.77,-134.5 93.76,0 169.77,60.22 169.77,134.5 0,31.75 -13.89,60.94 -37.11,83.94l95.8 92.89 0 776.12 1367.02 1367.02 -7.57 518.4 21.63 0 -0.66 297.13 -158.75 0 0.67 -297.13 46.87 0 -3.62 -474.31zm-967.62 3702.24l-160.23 0 0 -176.39 160.62 0 -0.39 176.39zm-360.96 -955.69l0 95.11 -26.81 0 0 -202.07 26.81 0 0 83.26 104.42 0 0 -83.26 26.81 0 0 202.07 -26.81 0 0 -95.11 -104.42 0zm-90.15 -371.83l-85.09 0 -21.92 61.24 -28.36 0 77.51 -202.07 29.4 0 82.27 202.07 -30.43 0 -23.38 -61.24zm-344.12 -1001.4l0 151.96 -158.75 -0.33 0 -151.95 92.58 0.19c52.45,-125.98 129.91,-234.42 232.4,-325.26l0.31 -132.64 200.47 0 -1.12 167.57 -152.43 0c-78.57,66.28 -149.41,168.58 -216.6,290.45l3.14 0.01zm2097.6 -290.46l-167.67 0 0.38 -167.57 174.18 0 -1.17 123.86c203.76,101.9 336.02,206.52 375.61,339.2l113.99 0.23 0 152.09 -176.39 -0.37 0 -152.08 16.59 0.03c-56.6,-106.14 -178.91,-201.82 -335.52,-295.39zm-1077.54 0l-166.05 0 0.38 -167.57 164.21 0 1.46 167.57zm221.88 0l-145.4 0 -0.74 -167.57 146.52 0 -0.38 167.57zm220.73 0l-167.78 0 0.38 -167.57 167.77 0 -0.37 167.57zm202.62 0l-149.68 0 0.38 -167.57 149.67 0 -0.37 167.57zm205.84 2619.38l-158.82 0 0.4 -176.39 158.82 0 -0.4 176.39zm5.86 -2619.38l-158.77 0 0.38 -167.57 158.76 0 -0.37 167.57zm715.93 1991.11l-176.39 -0.37 0 -172.34 176.39 -0.41 0 173.12zm-2592.92 -167.13l0 161.75 -158.75 -0.33 0 -161.05 158.75 -0.37zm284.18 -267.25l0 137.68c0,16.88 -2.03,29.96 -6.12,39.27 -4.09,9.27 -10.53,16.32 -19.42,21.22 -8.85,4.84 -19.24,7.29 -31.14,7.29 -17.74,0 -31.28,-5.08 -40.69,-15.29 -9.41,-10.21 -13.92,-25.35 -13.55,-45.48l23.99 -3.3c0.66,15.48 3.53,26.06 8.66,31.8 5.12,5.69 12.27,8.56 21.35,8.56 6.68,0 12.47,-1.55 17.31,-4.61 4.85,-3.1 8.23,-7.29 10.07,-12.56 1.83,-5.27 2.73,-13.73 2.73,-25.3l0 -139.28 26.81 0zm-284.18 -817.79l0 153.49 -158.75 -0.33 0 -152.79 158.75 -0.37zm0 -237.86l0 179.7 -158.75 -0.33 0 -179 158.75 -0.37zm3267.41 -10869.07c-115.43,0 -212.54,-78.52 -240.82,-185.04l-260.2 -3.25 -440.97 449.8 -1649.86 -12.6c24.53,-40.63 50.44,-82.16 77.73,-124.56l1532.44 -3.96 458.61 -427.74 279.19 6.98c23.61,-113.03 123.84,-197.93 243.88,-197.93 137.6,0 249.15,111.55 249.15,249.15 0,137.6 -111.55,249.15 -249.15,249.15zm-37.48 -881.96c-87.52,0 -162.38,-54.25 -192.76,-130.96l-294.98 0 -890.76 908.41 -953.36 14.02c33.43,-47.61 68.4,-96.19 104.88,-145.75 157.46,-5.69 413.87,-11.8 777.92,-18.2 24.89,-2.69 342.39,-302.55 952.5,-899.59l299.65 0c27.21,-82.7 105.09,-142.43 196.91,-142.43 114.46,0 207.25,92.79 207.25,207.25 0,114.46 -92.79,207.25 -207.25,207.25zm1924.63 7579.81l-661.46 -670.28 -436.56 8.82 0 -665.87c22.77,-24.27 459.33,-452.01 1309.69,-1283.23l0 -1177.4 363.47 -363.47 1.97 135.47 -255.2 245.63 4.41 1208.27 -1327.33 1265.6 0 546.81 361.6 0 732.02 705.56 8.82 2200.46 432.15 454.2 -4.41 158.75 -542.4 -590.9c-0.16,-2.94 1.31,-127.88 4.41,-374.83l8.82 -1803.59zm224.91 2046.14l-13.23 -277.82 -44.1 -1869.73 -820.21 -754.06c0.43,-23.52 -1.04,-174.93 -4.41,-454.21l1093.62 -1111.25 4.41 -1075.98 140.58 -210.88 1.89 130.44 -63.08 102.51c0,0 15.59,219.77 10.07,740.5 -9.64,116.6 -18.54,234.03 -26.68,352.29 -87.96,97.69 -449.9,496.21 -1046.14,1107.67l8.82 366.01 793.75 784.93 66.13 2090.2 203.75 241.74 13.18 183.51 -318.35 -345.87zm231.6 -3852.73c8.91,-7.92 8.9,-7.64 0,0zm-79.41 1619.19l-568.85 -674.69c0,33.63 0,-125.12 0,-476.25l652.64 -599.73 -4.38 131.48c-35.99,31.98 -217.51,197.64 -544.55,496.97l-4.41 427.74c0,0 194.53,193.18 529.44,618.18 2,652.34 23.4,1326.32 64.18,2021.89l-75.56 16.75 -48.51 -1962.34zm-399.01 8162.32l0 -416.72 136.69 0 0 416.72 -136.69 0zm240.5 -14.87l5.15 -375.97c14.62,-3.51 29.89,-5.39 45.59,-5.39 107.16,0 194.03,86.87 194.03,194.03 0,107.16 -86.87,194.03 -194.03,194.03 -17.56,0 -34.58,-2.33 -50.74,-6.7zm2725.26 -5922.21c37.08,-44.89 74.61,-77.33 112.61,-97.33 -35.52,34.33 -73.06,66.77 -112.61,97.33zm-323.92 -2896.48c8.09,2.85 16.18,6.93 24.27,12.21 -8.18,-4.06 -16.26,-8.13 -24.27,-12.21zm353.19 6631.21c-1088.25,475.66 -1778.51,105.24 -2070.82,-1111.26l263.24 -8.82c-277.65,-327.39 -347.85,-997.67 -210.6,-2010.83 119.23,-12.51 228.91,-93.35 329.04,-242.53 733.11,47.65 1286.41,-72.77 1659.87,-361.29 -106.67,129.14 -209.54,361.29 -308.58,696.43 -3.96,13.38 -7.86,26.76 -11.71,40.15 8.85,-3.07 21.61,-4.7 38.28,-4.88l-40.13 45.86c13.99,15.87 39.12,35.87 75.41,59.98 379.26,-74.4 661.49,-444.81 846.67,-1111.25 128.44,-288.86 363.63,-429.97 705.55,-423.34 706.72,456.54 730.24,397.74 70.56,-176.39 284.25,-162.81 642.91,-556.75 1075.97,-1181.8 361.17,-432.19 878.58,-455.71 1552.23,-70.56 -180.23,-292.65 -497.73,-422 -952.5,-388.06l88.19 -423.33c-569.13,632.71 -1174.73,1056.04 -1816.81,1270 -48.76,403.36 -419.18,867.85 -1111.25,1393.48 -222.8,209.64 -622.62,356.63 -1199.45,440.97 -947.61,112.83 -1323.9,-598.6 -1128.89,-2134.31l546.81 -299.86c143.3,260.57 449.04,301.72 917.22,123.47l440.98 -582.08c580.52,446.22 609.91,851.91 88.19,1217.08 -171.15,139.11 -165.27,250.82 17.64,335.14 190.02,92.62 331.13,10.31 423.33,-246.94 273.86,-375.03 197.42,-857.16 -229.3,-1446.39 -337.72,-344.39 -643.46,-644.26 -917.23,-899.59 -134.86,339.09 33.44,629 504.9,869.74 -114.89,-40.59 -230.27,163.38 -346.14,611.93 -155.35,-205.53 -478.73,-229.05 -970.14,-70.56l-440.98 211.67c101.43,-410.31 95.55,-1051.19 -17.64,-1922.64 1487.17,288.08 2369.12,88.17 2645.84,-599.72l793.75 1181.8 141.11 1234.73 141.11 -1516.95 -687.91 -617.36c-457.74,-826.33 -528.29,-1414.29 -211.67,-1763.89 359.13,-299.95 441.45,-635.09 246.94,-1005.42 121.15,-350.52 438.65,-503.39 952.51,-458.61 -150.76,-18.04 -262.47,-182.67 -335.14,-493.89 -195.18,-144.29 -253.98,-314.8 -176.39,-511.53 -447.96,-769.62 -689.02,-940.13 -723.2,-511.53 146.31,274.89 199.23,504.19 158.75,687.92 379.83,224.34 532.7,400.73 458.61,529.17l-635 458.61c-209.82,146.83 -186.3,370.26 70.56,670.28 104.71,199.74 -77.56,382.01 -546.81,546.8 -427.83,393.88 -339.63,852.49 264.59,1375.84 -301.52,724.12 -1142.31,912.27 -2522.37,564.44 280.97,-439.02 704.3,-621.29 1270,-546.8 -317.57,-272.79 -717.38,-360.98 -1199.44,-264.59 122.85,-1241.45 52.29,-2387.98 -211.67,-3439.58l493.89 -70.56c-99.47,437.79 129.84,731.77 687.92,881.95 -68.63,48.26 -98.03,242.29 -88.2,582.08 126.08,111.51 214.28,399.61 264.59,864.31 123.19,-101.44 181.99,-283.71 176.39,-546.81 -194.38,-166.39 -264.94,-395.7 -211.67,-687.92 129.13,-53.67 323.15,122.72 582.08,529.17 63.45,-205.94 -18.86,-435.25 -246.94,-687.92 -610.64,-526.27 -869.34,-931.96 -776.11,-1217.08 -46.43,-512.89 265.19,-836.27 934.86,-970.14 361.57,-112.09 326.29,-200.29 -105.84,-264.59 -848.16,160.03 -1242.1,624.52 -1181.8,1393.48l-511.53 70.55c-85.46,-626.54 38.02,-1161.59 370.42,-1605.14 580.97,-758.6 1283.09,-779.24 2106.34,-61.94l36.91 -13.1c890.23,-307.48 1631.06,45.3 2222.5,1058.33 695.34,96.73 1171.59,608.26 1428.75,1534.59 436.07,198.27 612.46,592.2 529.17,1181.8l255.78 317.5c338.13,396.51 464.55,1040.33 379.24,1931.46l-1.26 12.98c-399.13,-72.38 -738.27,27.65 -1017.43,300.08l-286.64 -449.8c-263.55,-229.1 -606.04,-321.71 -1027.47,-277.81 69.36,294.62 -36.47,642.99 -317.5,1045.11 320.67,-31.58 564.68,-265.29 732.01,-701.13l564.45 17.64c72.63,-3.79 178.46,149.08 317.5,458.61 1007.12,-876.07 594.79,381.51 1072.39,-219.16l-31.7 -115.98c30,13.08 58.9,27.71 86.72,43.87 6.24,-8.47 12.62,-17.22 19.12,-26.23l6.22 -8.65c145.62,5.52 255.57,149.42 329.86,431.67 172.02,351.94 218.74,881.21 140.17,1587.81 494.02,428.11 494.02,833.81 0,1217.09l423.33 88.19c99.83,271.06 58.67,800.23 -123.47,1587.5 314.43,486.04 308.55,1132.8 -17.64,1940.28 -392.52,-483.68 -898.17,-660.07 -1516.95,-529.16 290.16,-199.77 313.68,-511.39 70.56,-934.86 -419.2,-163.87 -666.15,-352.02 -740.83,-564.45 245.51,-386.03 292.55,-891.68 141.11,-1516.95 187.81,67.31 305.4,32.03 352.78,-105.83 -142.62,-180.73 -307.25,-163.09 -493.89,52.92 118.75,476.6 1.16,1035.16 -352.78,1675.69 -464.38,687.69 -911.24,905.24 -1340.56,652.64 -605.75,-575.08 -1199.6,-428.09 -1781.53,440.98 -228.86,-94.19 -422.89,-47.15 -582.08,141.11l705.55 35.28c416.32,-862.81 980.77,-986.28 1693.34,-370.42 42.56,327.07 124.87,585.77 246.94,776.11 174.94,-154.74 280.78,-401.69 317.5,-740.83 224.63,21.75 465.7,-101.73 723.2,-370.42 255.22,-115.18 490.4,-138.7 705.55,-70.56 327.59,888.01 110.04,1299.58 -652.63,1234.73 283.42,300.21 536.25,282.57 758.47,-52.92 718.95,-111.44 1265.76,47.31 1640.42,476.25 -119.04,911.1 -530.61,1628.42 -1234.73,2151.95 -409.57,-225.76 -574.2,-537.38 -493.89,-934.86 77.42,-681.72 -198.92,-952.18 -829.03,-811.39 712.08,774.33 535.7,1285.86 -529.16,1534.58 269.93,268.94 605.07,163.11 1005.42,-317.5 50.07,228.83 211.75,508.11 485.05,837.86l-299.86 423.33c66.3,716.86 -262.96,1134.31 -987.78,1252.36 -78.74,103.52 -72.86,56.48 17.64,-141.11 -63.95,-430.06 -287.38,-641.72 -670.28,-635 -253.33,183.91 -559.07,189.79 -917.22,17.64 -419.44,-178.54 -672.27,-84.46 -758.48,282.22 -164.26,327.81 -611.11,604.16 -1340.55,829.03 707.02,187.18 1206.79,22.55 1499.3,-493.89 -185.93,-501.66 108.05,-531.06 881.95,-88.19 744.22,-253.32 1120.52,-88.69 1128.89,493.89 -314.61,508.42 -820.26,802.4 -1516.95,881.94 -202.86,419.31 -873.14,642.74 -2010.83,670.28 -803.96,-138.01 -1192.02,-602.5 -1164.17,-1393.47 276.06,-370.73 193.74,-917.54 -246.95,-1640.42 325.82,-139.26 631.56,-162.78 917.23,-70.56 423.32,216.23 734.94,216.23 934.86,0 -270.94,-31.97 -559.04,-73.13 -864.31,-123.47 -235.79,-187.17 -535.65,-216.57 -899.58,-88.19 24.09,-787.95 24.09,-1393.56 0,-1816.81 454.42,661.8 1077.66,785.28 1869.72,370.42 -37.16,-31.65 245.06,-225.68 846.67,-582.09 515.33,589.65 380.1,1224.65 -405.69,1905 602.87,-210.04 920.37,-639.25 952.5,-1287.64 -275.04,-619.93 -269.16,-919.79 17.64,-899.58 926.07,536.05 1478.75,665.41 1658.05,388.06 -1288.75,-287.58 -1741.48,-822.63 -1358.19,-1605.15l-194.03 0c-47.19,655.74 -503.49,1252.55 -1368.9,1790.45zm-5305.53 4227.07c0,-133.95 108.58,-242.53 242.53,-242.53 60.85,0 116.49,22.41 159.05,59.43l-73.06 74.48c-23.61,-18.72 -53.5,-29.91 -85.99,-29.91 -76.51,0 -138.53,62.02 -138.53,138.53 0,76.51 62.02,138.53 138.53,138.53 76.51,0 138.53,-62.02 138.53,-138.53 0,-22.73 -5.48,-44.18 -15.18,-63.1l79.18 -70.38c25.28,38.28 40,84.16 40,133.48 0,133.95 -108.58,242.53 -242.53,242.53 -133.95,0 -242.53,-108.58 -242.53,-242.53zm1506.64 401.03c2.41,27.08 -6.41,-8.2 -26.46,-105.83 272.54,-41.42 393.07,64.41 361.6,317.5l-158.75 -17.64c74.85,-144.53 16.05,-209.2 -176.39,-194.03zm-5965.99 -6635.88l0.1 4.31c-1.32,-1.56 -1.35,-3 -0.1,-4.31zm1614.07 -79.47l-269 -224.9 -105.83 -57.33 -366.01 4.41 -313.09 361.6c-358.91,-18.08 -545.62,-19.52 -560.14,-4.31l-13.13 -595.41 61.74 -61.74c-193.23,-157.37 -294.66,-407.26 -304.28,-749.66 -28.58,-526.1 9.64,-845.07 114.66,-956.91 40.02,-34.69 12.09,-169.92 -83.79,-405.7 -116.79,-298.87 -93.27,-598.73 70.56,-899.59 67.55,-219.93 174.86,-368.39 321.91,-445.38l7.34 -3.77 -5.15 -7.28c-140.31,-201.34 -128.55,-421.82 35.28,-661.46l352.78 202.85 -8.82 1464.03 855.49 811.39 -585.59 -7.22 0.01 -1.96c0,-133.95 -140.18,-242.53 -313.09,-242.53 -172.91,0 -313.09,108.58 -313.09,242.53 0,133.95 140.18,242.53 313.09,242.53 147.6,0 271.36,-79.13 304.42,-185.6l605.27 11.78 -8.8 595.35 -338.07 0c-25.34,-94.82 -127.53,-165.75 -249.73,-165.75 -141.25,0 -255.76,94.76 -255.76,211.66 0,116.9 114.51,211.66 255.76,211.66 129.29,0 236.18,-79.41 253.35,-182.49l347.68 4.29c-9.18,438.03 -13.59,658.52 -13.23,661.46l-340.32 -9.45c-30.48,-99.89 -141.57,-173.94 -273.94,-173.94 -155.87,0 -282.22,102.66 -282.22,229.3 0,126.64 126.35,229.3 282.22,229.3 155,0 280.81,-101.52 282.21,-227.18l340.87 9.3 -4.41 339.55 317.5 317.5 -114.65 119.07zm1347.57 482.78c-9.64,7.91 -21.87,11.86 -36.64,11.86 -19.43,0 -34.71,-6.92 -45.81,-20.79 -13.31,-16.94 -19.95,-44.36 -19.95,-82.32 0,-23.85 2.45,-43.13 7.34,-57.71 4.94,-14.63 12.23,-25.87 21.92,-33.73 9.64,-7.85 21.83,-11.76 36.5,-11.76 10.82,0 20.32,2.17 28.55,6.54 8.19,4.38 14.96,10.68 20.23,18.91 5.27,8.19 9.4,18.2 12.42,30.01 3.05,11.81 4.56,27.75 4.56,47.74 0,23.71 -2.45,42.9 -7.29,57.48 -4.85,14.63 -12.14,25.87 -21.83,33.77zm-81.14 -1106.51l-0.66 297.13 -147.48 0 -1.32 -297.13 149.46 0zm220.06 297.13l-167.77 0 0.67 -297.13 167.77 0 -0.67 297.13zm467.27 0l0.67 -297.13 169.18 0 2.7 297.13 -172.55 0zm-915.86 -297.13l2.58 297.13 -162.63 0 0.67 -297.13 159.38 0zm503.04 1118.37c-15.81,0 -28.69,-4.38 -38.71,-13.17 -9.97,-8.8 -16,-21.17 -18.02,-37.07l23.71 -1.97c2.02,11.19 5.88,19.28 11.57,24.31 5.69,5.04 12.98,7.58 21.92,7.58 7.62,0 14.3,-1.74 20.08,-5.27 5.79,-3.48 10.49,-8.14 14.11,-14.02 3.63,-5.83 6.68,-13.73 9.18,-23.66 2.49,-9.92 3.71,-20.04 3.71,-30.34l-0.14 -4.98c-4.94,7.9 -11.71,14.34 -20.27,19.24 -8.56,4.93 -17.88,7.38 -27.85,7.38 -16.7,0 -30.81,-6.07 -42.38,-18.2 -11.52,-12.09 -17.31,-28.08 -17.31,-47.93 0,-20.51 6.02,-36.97 18.11,-49.49 12.04,-12.46 27.14,-18.72 45.35,-18.72 13.07,0 25.07,3.53 35.98,10.63 10.86,7.06 19.1,17.13 24.74,30.25 5.64,13.07 8.47,32.03 8.47,56.82 0,25.82 -2.78,46.38 -8.38,61.66 -5.59,15.34 -13.97,26.96 -25.02,34.95 -11.05,8 -23.99,12 -38.85,12zm-19.16 -11299.82l-355.33 0c34.7,-44.82 70.53,-90.37 107.5,-136.64l212.55 21.98c13.96,-81.68 158.01,-225.73 432.16,-432.15l70.55 79.37 -467.43 467.44zm-865.4 12143.1l-150.7 0 0 -202.07 145.9 0 0 23.71 -119.09 0 0 62.09 111.47 0 0 23.7 -111.47 0 0 68.86 123.89 0 0 23.71zm-282.12 -416.17l0 23.71 -133.78 0c-0.18,-5.97 0.8,-11.71 2.92,-17.26 3.43,-9.08 8.94,-18.06 16.51,-26.86 7.57,-8.8 18.39,-18.96 32.46,-30.48 21.87,-18.02 36.73,-32.27 44.49,-42.8 7.81,-10.54 11.71,-20.51 11.71,-29.92 0,-9.83 -3.52,-18.11 -10.58,-24.88 -7.05,-6.73 -16.27,-10.11 -27.61,-10.11 -11.99,0 -21.59,3.57 -28.79,10.72 -7.19,7.1 -10.81,16.98 -10.91,29.63l-25.4 -2.54c1.74,-19 8.33,-33.49 19.71,-43.46 11.43,-9.97 26.72,-14.96 45.96,-14.96 19.37,0 34.76,5.37 46.04,16.14 11.34,10.77 16.98,24.13 16.98,40.03 0,8.09 -1.64,16.04 -4.98,23.84 -3.29,7.86 -8.8,16.09 -16.46,24.74 -7.72,8.61 -20.47,20.51 -38.25,35.56 -14.91,12.52 -24.5,20.98 -28.73,25.45 -4.24,4.47 -7.72,8.94 -10.49,13.45l99.2 0zm165.66 27.1c-15.81,0 -28.69,-4.38 -38.71,-13.17 -9.97,-8.8 -16,-21.17 -18.02,-37.07l23.71 -1.97c2.02,11.19 5.88,19.28 11.57,24.31 5.69,5.04 12.98,7.58 21.92,7.58 7.62,0 14.3,-1.74 20.08,-5.27 5.79,-3.48 10.49,-8.14 14.11,-14.02 3.63,-5.83 6.68,-13.73 9.18,-23.66 2.49,-9.92 3.71,-20.04 3.71,-30.34l-0.14 -4.98c-4.94,7.9 -11.71,14.34 -20.27,19.24 -8.56,4.93 -17.88,7.38 -27.85,7.38 -16.7,0 -30.81,-6.07 -42.38,-18.2 -11.52,-12.09 -17.31,-28.08 -17.31,-47.93 0,-20.51 6.02,-36.97 18.11,-49.49 12.04,-12.46 27.14,-18.72 45.35,-18.72 13.07,0 25.07,3.53 35.98,10.63 10.86,7.06 19.1,17.13 24.74,30.25 5.64,13.07 8.47,32.03 8.47,56.82 0,25.82 -2.78,46.38 -8.38,61.66 -5.59,15.34 -13.97,26.96 -25.02,34.95 -11.05,8 -23.99,12 -38.85,12zm-235.71 -505.61l-21.92 61.24 -28.36 0 77.51 -202.07 29.4 0 82.27 202.07 -30.43 0 -23.38 -61.24 -85.09 0zm379.72 56.63c-12.37,-5.31 -22.01,-13.31 -29.02,-24.04 -7.05,-10.67 -10.72,-22.76 -11.1,-36.26l25.12 -2.26c1.18,10.16 3.95,18.49 8.33,25.03 4.37,6.49 11.14,11.75 20.32,15.8 9.17,4 19.52,6.02 30.99,6.02 10.21,0 19.19,-1.51 27,-4.56 7.81,-3.06 13.59,-7.25 17.4,-12.56 3.81,-5.32 5.74,-11.1 5.74,-17.31 0,-6.3 -1.83,-11.81 -5.5,-16.56 -3.67,-4.7 -9.74,-8.65 -18.2,-11.9 -5.41,-2.07 -17.41,-5.36 -35.99,-9.83 -18.58,-4.47 -31.56,-8.65 -38.99,-12.6 -9.64,-5.08 -16.79,-11.39 -21.5,-18.87 -4.75,-7.47 -7.1,-15.89 -7.1,-25.16 0,-10.25 2.92,-19.8 8.7,-28.65 5.79,-8.89 14.21,-15.61 25.36,-20.22 11.1,-4.61 23.47,-6.92 37.06,-6.92 14.96,0 28.18,2.4 39.61,7.25 11.43,4.8 20.22,11.9 26.38,21.31 6.17,9.36 9.46,19.99 9.93,31.84l-25.68 1.97c-1.37,-12.74 -6.02,-22.38 -13.97,-28.88 -7.95,-6.53 -19.71,-9.78 -35.23,-9.78 -16.18,0 -27.99,2.96 -35.38,8.89 -7.38,5.93 -11.1,13.08 -11.1,21.45 0,7.24 2.64,13.22 7.86,17.92 5.17,4.66 18.58,9.5 40.31,14.39 21.73,4.94 36.64,9.22 44.73,12.89 11.71,5.41 20.42,12.23 26.01,20.56 5.6,8.27 8.38,17.82 8.38,28.64 0,10.77 -3.06,20.84 -9.22,30.34 -6.17,9.5 -14.96,16.89 -26.49,22.15 -11.52,5.27 -24.45,7.91 -38.89,7.91 -18.26,0 -33.54,-2.68 -45.87,-8zm4617.41 -5000.89l-8.82 -405.69 343.29 -299.28 -4.48 126.43 -215.34 190.49 8.82 388.05 190.63 206.97 -0.87 192.9 -313.23 -399.87zm541.07 10237.41l8.82 -599.72 335.14 0c6.14,12.32 -29.14,209.29 -105.84,590.9l-238.12 8.82z"/>
   </g>
   <circle class="fil2 str1" cx="10322.26" cy="16053.35" r="273.37"/>
  </g>
 </g>
</svg>
